<svg version="1.1" viewBox="0.0 0.0 960.0 540.0" fill="none" stroke="none" stroke-linecap="square" stroke-miterlimit="10" xmlns:xlink="http://www.w3.org/1999/xlink" xmlns="http://www.w3.org/2000/svg"><clipPath id="g26d42c8df2b_0_11.0"><path d="m0 0l960.0 0l0 540.0l-960.0 0l0 -540.0z" clip-rule="nonzero"/></clipPath><g clip-path="url(#g26d42c8df2b_0_11.0)"><path fill="#ffffff" d="m0 0l960.0 0l0 540.0l-960.0 0z" fill-rule="evenodd"/><path fill="#6aa84f" d="m222.51443 325.59097l-67.25984 -132.01573l147.22835 16.771652z" fill-rule="evenodd"/><path stroke="#595959" stroke-width="1.0" stroke-linejoin="round" stroke-linecap="butt" d="m222.51443 325.59097l-67.25984 -132.01573l147.22835 16.771652z" fill-rule="evenodd"/><path fill="#e69138" d="m450.2313 282.12524l-41.480316 -219.65355l-188.56693 263.1181z" fill-rule="evenodd"/><path stroke="#595959" stroke-width="1.0" stroke-linejoin="round" stroke-linecap="butt" d="m450.2313 282.12524l-41.480316 -219.65355l-188.56693 263.1181z" fill-rule="evenodd"/><path fill="#a64d79" d="m150.60367 181.63275l34.992126 73.354324l-121.44882 -31.968506z" fill-rule="evenodd"/><path stroke="#741b47" stroke-width="1.0" stroke-linejoin="round" stroke-linecap="butt" d="m150.60367 181.63275l34.992126 73.354324l-121.44882 -31.968506z" fill-rule="evenodd"/><path fill="#cc4125" d="m411.1971 60.53791l390.69656 37.095406l-348.83832 182.8731z" fill-rule="evenodd"/><path stroke="#595959" stroke-width="1.0" stroke-linejoin="round" stroke-linecap="butt" d="m411.1971 60.53791l390.69656 37.095406l-348.83832 182.8731z" fill-rule="evenodd"/><path fill="#cc0000" d="m433.38174 425.17056l-216.61417 -98.37796l233.46457 -45.905518z" fill-rule="evenodd"/><path stroke="#595959" stroke-width="1.0" stroke-linejoin="round" stroke-linecap="butt" d="m433.38174 425.17056l-216.61417 -98.37796l233.46457 -45.905518z" fill-rule="evenodd"/><path fill="#434343" d="m447.52756 280.5093l-2.6299133 140.12598l137.77954 25.165375z" fill-rule="evenodd"/><path stroke="#595959" stroke-width="1.0" stroke-linejoin="round" stroke-linecap="butt" d="m447.52756 280.5093l-2.6299133 140.12598l137.77954 25.165375z" fill-rule="evenodd"/><path fill="#434343" d="m591.8488 443.50403l-0.9291382 -140.14172l-138.37793 -21.653564z" fill-rule="evenodd"/><path stroke="#595959" stroke-width="1.0" stroke-linejoin="round" stroke-linecap="butt" d="m591.8488 443.50403l-0.9291382 -140.14172l-138.37793 -21.653564z" fill-rule="evenodd"/></g></svg>