<svg version="1.1" viewBox="0.0 0.0 960.0 540.0" fill="none" stroke="none" stroke-linecap="square" stroke-miterlimit="10" xmlns:xlink="http://www.w3.org/1999/xlink" xmlns="http://www.w3.org/2000/svg"><clipPath id="g26d42c8df2b_0_0.0"><path d="m0 0l960.0 0l0 540.0l-960.0 0l0 -540.0z" clip-rule="nonzero"/></clipPath><g clip-path="url(#g26d42c8df2b_0_0.0)"><path fill="#ffffff" d="m0 0l960.0 0l0 540.0l-960.0 0z" fill-rule="evenodd"/><path fill="#000000" fill-opacity="0.0" d="m58.26509 351.67715l514.77167 0l0 113.10239l-514.77167 0z" fill-rule="evenodd"/><path fill="#0000ff" d="m92.343216 370.62778l0 3.890625l-17.21875 0l-0.609375 1.375q-0.015625 -0.609375 0.328125 -0.609375l0.46875 0q1.421875 0 2.5625 0.53125q1.140625 0.515625 1.9375 1.4375q0.8125 0.921875 1.21875 2.1875q0.40625 1.25 0.09375 1.375l2.421875 -3.84375l0 -0.953125l3.8125 0q0 11.4375 2.59375 19.890625l-3.765625 0q-2.59375 -8.75 -2.59375 -12.515625l-3.453125 4.46875q-2.984375 3.90625 -6.03125 3.90625q-0.9375 0 -1.640625 -0.171875q-0.6875 -0.1875 -1.3125 -0.546875q-0.609375 -0.359375 -1.125 -0.875q-0.5 -0.53125 -1.53125 -1.703125l2.734375 -2.703125q1.859375 2.171875 2.671875 2.171875q3.78125 0 3.78125 -6.078125q0 -0.578125 -0.1875 -1.09375q-0.171875 -0.515625 -0.484375 -0.890625q-0.3125 -0.390625 -0.75 -0.609375q-0.421875 -0.21875 -0.953125 -0.21875q-1.4375 0 -1.921875 0.359375q0.3125 -0.171875 0.890625 0.59375q0.578125 0.765625 0.578125 1.75q0 1.234375 -0.859375 2.09375q-0.84375 0.84375 -2.0625 0.84375q-0.59375 0 -1.140625 -0.21875q-0.546875 -0.21875 -0.953125 -0.625q-0.390625 -0.421875 -0.625 -0.9375q-0.234375 -0.53125 -0.234375 -1.171875q0.109375 -1.921875 0.828125 -3.265625q0.71875 -1.34375 2.0625 -2.140625l0 -1.8125l-4.609375 0.015625l0 -3.90625l16.890625 0q-0.5 -2.703125 -5.328125 -2.703125q-6.203125 0 -9.921875 -4.234375l2.5625 -2.546875q3.0625 2.984375 7.59375 2.984375q7.859375 0 8.96875 6.5l4.3125 0zm8.896484 0l0 3.890625l-2.09375 0q-0.8125 0.53125 -1.625 1.609375q-0.8125 1.078125 -1.390625 2.359375q-0.578125 1.28125 -0.890625 2.640625q-0.296875 1.34375 -0.296875 2.515625q0 1.15625 0.125 2.453125q0.140625 1.296875 0.4375 2.484375q0.3125 1.1875 0.796875 2.140625q0.484375 0.953125 0.625 1.4375q-0.078125 -0.28125 0.40625 -0.453125q0.5 -0.171875 1.015625 -0.171875q1.21875 0 2.078125 0.859375q0.859375 0.84375 0.859375 2.078125q0 1.203125 -0.859375 2.046875q-0.859375 0.859375 -2.078125 0.859375q-0.984375 0 -1.78125 -0.53125q-0.796875 -0.515625 -1.421875 -1.125q-0.78125 -0.75 -1.390625 -1.734375q-0.59375 -1.0 -1.0625 -2.109375q-0.453125 -1.109375 -0.78125 -2.265625q-0.3125 -1.171875 -0.53125 -2.265625q-0.203125 -1.09375 -0.3125 -2.0625q-0.09375 -0.96875 -0.09375 -1.640625q0 -1.25 0.234375 -2.625q0.25 -1.390625 0.71875 -2.765625q0.484375 -1.390625 1.203125 -2.671875q0.71875 -1.28125 0.90625 -1.234375l-4.921875 0.171875l0 -3.890625l12.125 0zm18.767578 0l0 3.890625l-14.984375 0l0 5.484375q0 1.328125 0.203125 1.984375q0.21875 0.65625 -0.03125 0.640625q2.359375 -4.578125 10.84375 -4.578125l0 17.1875l-3.96875 0l0 -13.203125q-1.5 0.203125 -2.984375 1.5625q-1.484375 1.359375 -2.796875 4.546875q-1.9375 -1.015625 -2.8125 -1.78125q-0.859375 -0.765625 -1.390625 -1.6875q-0.53125 -0.9375 -0.78125 -2.0625q-0.234375 -1.125 -0.234375 -2.484375l0 -5.609375l-2.9375 0l0 -3.890625l21.875 0zm21.142578 0l0 3.890625l-4.65625 0l0 20.71875l-3.953125 0l0 -3.15625q-0.890625 -1.25 -2.296875 -2.3125q-1.40625 -1.0625 -3.125 -1.828125q-1.71875 -0.78125 -3.671875 -1.296875q-1.9375 -0.515625 -4.734375 -0.96875q0.59375 -3.5625 2.34375 -5.59375q1.75 -2.03125 4.40625 -3.015625q2.984375 -1.046875 7.078125 -1.046875l0 -1.5l-15.6875 0l0 -3.890625l24.296875 0zm-8.4375 16.25l-0.171875 -7.0625q-2.921875 0 -5.34375 0.8125q-2.953125 0.984375 -3.609375 2.234375q0.546875 0.078125 2.109375 0.515625q1.578125 0.4375 3.03125 1.0625q1.46875 0.609375 2.75 1.4375q1.296875 0.828125 1.234375 1.0zm-5.703125 5.078125q0 0.703125 -0.25 1.296875q-0.234375 0.578125 -0.703125 1.03125q-0.453125 0.453125 -1.046875 0.703125q-0.59375 0.25 -1.25 0.25q-0.71875 0 -1.328125 -0.25q-0.59375 -0.25 -1.046875 -0.703125q-0.4375 -0.453125 -0.6875 -1.03125q-0.25 -0.59375 -0.25 -1.296875q0 -0.6875 0.25 -1.265625q0.25 -0.59375 0.6875 -1.046875q0.453125 -0.453125 1.046875 -0.703125q0.609375 -0.25 1.328125 -0.25q1.375 0 2.3125 0.9375q0.9375 0.9375 0.9375 2.328125z" fill-rule="nonzero"/><path fill="#0000ff" d="m172.31587 370.62778l0 3.890625l-4.65625 0l0 20.71875l-3.953125 0l0 -3.34375q-0.875 -1.53125 -1.9375 -2.671875q-1.0625 -1.15625 -2.296875 -1.921875q-1.6875 -1.0 -3.828125 -1.390625q-2.140625 -0.40625 -5.640625 -0.359375l0 -3.84375l3.078125 0q0.59375 0 1.4375 -0.375q0.859375 -0.375 1.625 -0.96875q0.78125 -0.609375 1.265625 -1.28125q0.484375 -0.6875 0.484375 -1.28125q0 -0.421875 -0.171875 -0.875q-0.15625 -0.453125 -0.453125 -0.875q-0.296875 -0.4375 -0.6875 -0.78125q-0.375 -0.359375 -0.0625 -0.75q0.5 -0.015625 0.5 0.484375q0 1.0 -0.421875 1.796875q-0.40625 0.796875 -1.125 1.34375q-0.71875 0.546875 -1.609375 0.828125q-0.890625 0.265625 -1.890625 0.265625q-1.171875 0 -2.0625 -0.859375q-0.890625 -0.859375 -0.890625 -2.0625q0 -0.59375 0.234375 -1.125q0.234375 -0.53125 0.625 -0.9375q0.40625 -0.40625 0.9375 -0.625q0.546875 -0.234375 1.15625 -0.234375q0.9375 0 1.65625 0.515625q0.734375 0.5 0.375 1.015625q-0.53125 -0.078125 -0.53125 -0.375q0 -0.859375 -1.4375 -1.828125l2.03125 -2.296875q1.8125 0 3.09375 0.640625q1.28125 0.625 2.296875 1.6875q1.03125 1.0625 1.71875 2.40625q0.6875 1.328125 0.6875 2.640625q0 3.3125 -2.515625 4.890625q0.25 0.03125 2.109375 1.28125q1.875 1.1875 2.25 1.640625l0 -14.984375l8.609375 0zm6.6875 32.484375l0 3.421875q-1.875 0 -2.78125 -0.234375q-0.90625 -0.234375 -1.75 -0.703125q-0.84375 -0.46875 -1.609375 -1.109375q-0.765625 -0.625 -1.46875 -1.390625q-0.4375 -0.46875 -0.953125 -1.03125q-0.515625 -0.5625 -1.0625 -1.109375q-0.53125 -0.53125 -1.0625 -0.953125q-0.53125 -0.40625 -0.46875 -0.953125q0.53125 -0.140625 0.59375 0.078125q0.046875 0.21875 0.046875 0.609375q0 1.09375 -0.40625 1.9375q-0.40625 0.84375 -1.046875 1.40625q-0.65625 0.578125 -1.4375 0.875q-0.796875 0.296875 -1.625 0.296875q-0.875 0 -1.6875 -0.296875q-0.828125 -0.296875 -1.484375 -0.875q-0.65625 -0.578125 -1.015625 -1.421875q-0.375 -0.84375 -0.375 -1.921875q0 -0.890625 0.375 -1.734375q0.359375 -0.828125 1.0 -1.4375q0.625 -0.59375 1.453125 -0.96875q0.828125 -0.375 1.765625 -0.375l0 0.359375l-0.359375 -2.6875l3.96875 0l0 2.71875q0.5625 0.140625 1.5 0.75q0.953125 0.609375 1.78125 1.359375q0.84375 0.765625 1.578125 1.578125q0.734375 0.828125 1.453125 1.5625q0.9375 0.984375 1.984375 1.609375q1.046875 0.640625 3.09375 0.640625zm-13.828125 -3.375q0 -0.3125 -0.09375 -0.625q-0.09375 -0.3125 -0.15625 -0.40625q-0.125 -0.0625 -0.375 -0.140625q-0.25 -0.0625 -0.578125 -0.0625q-0.546875 0 -0.890625 0.390625q-0.359375 0.40625 -0.359375 0.84375q0 0.546875 0.3125 0.859375q0.3125 0.328125 0.9375 0.328125q0.59375 0 0.90625 -0.296875q0.296875 -0.296875 0.296875 -0.890625zm29.242188 -32.140625l-2.671875 2.78125q-2.453125 -2.84375 -5.109375 -3.953125q-2.65625 -1.125 -6.0625 -1.125q-0.8125 0 -1.71875 0.203125q-0.890625 0.203125 -1.640625 0.640625q-0.734375 0.421875 -1.203125 1.0625q-0.453125 0.640625 -0.453125 1.578125q0 0.8125 0.3125 1.21875q0.3125 0.40625 0.90625 0.625l4.453125 0l0 3.890625l-4.65625 0l0 22.421875l-3.984375 0l0 -22.421875l-3.40625 0l0 -3.890625l3.453125 0.40625q-0.40625 0.125 -0.625 -0.671875q-0.21875 -0.796875 -0.21875 -1.578125q0 -1.796875 0.765625 -3.15625q0.78125 -1.359375 2.03125 -2.265625q1.25 -0.90625 2.8125 -1.328125q1.578125 -0.4375 3.171875 -0.4375q2.109375 0 3.890625 0.28125q1.796875 0.28125 3.390625 0.953125q1.609375 0.65625 3.0625 1.703125q1.46875 1.03125 3.5 3.0625zm7.9570312 3.03125l0 3.890625l-4.65625 0l0 20.71875l-3.953125 0l0 -18.75q0 -0.3125 -0.1875 -0.59375q-0.171875 -0.296875 -0.5 -0.546875q-0.3125 -0.25 -0.71875 -0.375q-0.390625 -0.140625 -0.734375 -0.140625q-0.46875 0 -0.859375 0.171875q-0.375 0.171875 -0.671875 0.5q-0.28125 0.328125 -0.46875 0.765625q-0.171875 0.421875 -0.546875 0.28125q-0.015625 -0.40625 0.703125 -0.40625q1.328125 0 2.234375 0.921875q0.921875 0.90625 0.921875 2.234375l0 4.140625q-4.421875 -0.1875 -5.484375 -1.734375q-1.265625 1.703125 -5.484375 1.703125q0.03125 -1.734375 0.03125 -2.328125l0 -0.9375q0 -0.34375 -0.015625 -0.5q0 -0.171875 0 -0.34375q0 -1.328125 0.921875 -2.234375q0.921875 -0.921875 2.25 -0.921875q0.6875 0 0.734375 0.4375q-0.390625 0.125 -0.5625 -0.359375q-0.171875 -0.5 -0.453125 -0.875q-0.265625 -0.390625 -0.609375 -0.609375q-0.34375 -0.21875 -0.71875 -0.21875l-5.46875 0l0 -3.890625l5.46875 0q0.703125 0 1.375 0.234375q0.6875 0.21875 1.28125 0.609375q0.59375 0.375 1.09375 0.875q0.5 0.484375 0.21875 0.765625q1.03125 -2.109375 4.109375 -2.109375q0.8125 0 1.671875 0.296875q0.859375 0.28125 0.78125 0.59375l-0.3125 -1.265625l8.609375 0z" fill-rule="nonzero"/><path fill="#0000ff" d="m233.54048 370.62778l0 3.890625l-4.65625 0l0 20.71875l-3.953125 0l0 -3.15625q-0.890625 -1.25 -2.296875 -2.3125q-1.40625 -1.0625 -3.125 -1.828125q-1.71875 -0.78125 -3.671875 -1.296875q-1.9375 -0.515625 -4.734375 -0.96875q0.59375 -3.5625 2.34375 -5.59375q1.75 -2.03125 4.40625 -3.015625q2.984375 -1.046875 7.078125 -1.046875l0 -1.5l-15.6875 0l0 -3.890625l24.296875 0zm-8.4375 16.25l-0.171875 -7.0625q-2.921875 0 -5.34375 0.8125q-2.953125 0.984375 -3.609375 2.234375q0.546875 0.078125 2.109375 0.515625q1.578125 0.4375 3.03125 1.0625q1.46875 0.609375 2.75 1.4375q1.296875 0.828125 1.234375 1.0zm17.757812 -16.25l0 3.890625l-2.40625 0q-0.703125 0.03125 -0.984375 0.4375q-0.265625 0.40625 -0.265625 1.125l0 20.859375l-3.9375 0l0 -18.578125q0 -0.765625 -0.1875 -1.46875q-0.171875 -0.71875 -0.5 -1.25q-0.328125 -0.546875 -0.765625 -0.828125q-0.421875 -0.296875 -0.984375 -0.296875l-2.421875 0l0 -3.890625l2.421875 0q0.875 0 1.640625 0.25q0.765625 0.234375 1.359375 0.609375q0.59375 0.375 1.0 0.828125q0.421875 0.4375 -0.0625 0.796875q-0.328125 -0.953125 0.84375 -1.71875q1.171875 -0.765625 2.796875 -0.765625l2.453125 0zm22.062515 -3.03125l-2.671875 2.78125q-2.453125 -2.84375 -5.109375 -3.953125q-2.6562653 -1.125 -6.0625153 -1.125q-0.8125 0 -1.71875 0.203125q-0.890625 0.203125 -1.640625 0.640625q-0.734375 0.421875 -1.203125 1.0625q-0.453125 0.640625 -0.453125 1.578125q0 0.8125 0.3125 1.21875q0.3125 0.40625 0.90625 0.625l4.453125 0l0 3.890625l-4.65625 0l0 22.421875l-3.984375 0l0 -22.421875l-3.40625 0l0 -3.890625l3.453125 0.40625q-0.40625 0.125 -0.625 -0.671875q-0.21875 -0.796875 -0.21875 -1.578125q0 -1.796875 0.765625 -3.15625q0.78125 -1.359375 2.03125 -2.265625q1.25 -0.90625 2.8125 -1.328125q1.578125 -0.4375 3.171875 -0.4375q2.109375 0 3.890625 0.28125q1.7968903 0.28125 3.3906403 0.953125q1.609375 0.65625 3.0625 1.703125q1.46875 1.03125 3.5 3.0625zm12.066406 3.03125l0 3.890625l-15.078125 0l0 6.90625q0 0.53125 0.15625 0.9375q0.171875 0.390625 0.4375 0.65625q0.265625 0.265625 0.640625 0.40625q0.390625 0.140625 0.8125 0.140625q0.421875 0 0.796875 -0.140625q0.375 -0.15625 0.65625 -0.40625q0.296875 -0.25 0.4375 -0.578125q0.15625 -0.328125 0.15625 -0.75l0 -1.40625q0.84375 -0.265625 1.390625 -0.453125q0.546875 -0.203125 1.75 -0.578125q3.53125 4.6875 3.53125 8.3125q0 1.875 -0.625 3.4375q-0.625 1.546875 -1.78125 2.640625q-1.15625 1.09375 -2.734375 1.671875q-1.578125 0.59375 -3.4375 0.59375q-5.75 0 -9.500015 -4.890625q-3.1875 -4.078125 -4.0625 -10.734375l3.671875 -0.453125q0.890625 5.40625 3.1250153 8.578125q2.640625 3.671875 6.765625 3.671875q1.078125 0 1.921875 -0.3125q0.84375 -0.3125 1.421875 -0.875q0.59375 -0.578125 0.921875 -1.375q0.34375 -0.8125 0.34375 -1.890625q0 -1.71875 -0.203125 -2.96875q0.328125 0.28125 -0.265625 0.90625q-0.59375 0.625 -1.3125 1.015625q-0.703125 0.375 -1.515625 0.59375q-0.796875 0.203125 -1.609375 0.203125q-1.421875 0 -2.515625 -0.546875q-1.09375 -0.546875 -1.84375 -1.46875q-0.75 -0.921875 -1.125 -2.09375q-0.359375 -1.171875 -0.359375 -2.46875l0 -6.28125l-9.375015 0l0 -3.890625l28.406265 0zm-14.484375 31.8125q0 1.203125 -0.859375 2.0625q-0.84375 0.859375 -2.078125 0.859375q-0.59375 0 -1.15625 -0.234375q-0.546875 -0.21875 -0.953125 -0.640625q-0.390625 -0.40625 -0.609375 -0.921875q-0.21875 -0.515625 -0.21875 -1.125q0 -0.625 0.21875 -1.15625q0.21875 -0.515625 0.625 -0.9375q0.40625 -0.40625 0.953125 -0.625q0.5625 -0.21875 1.140625 -0.21875q1.234375 0 2.078125 0.84375q0.859375 0.859375 0.859375 2.09375zm23.480469 -31.8125l0 3.890625l-2.09375 0q-0.8125 0.53125 -1.625 1.609375q-0.8125 1.078125 -1.390625 2.359375q-0.578125 1.28125 -0.890625 2.640625q-0.296875 1.34375 -0.296875 2.515625q0 1.15625 0.125 2.453125q0.140625 1.296875 0.4375 2.484375q0.3125 1.1875 0.796875 2.140625q0.484375 0.953125 0.625 1.4375q-0.078125 -0.28125 0.40625 -0.453125q0.5 -0.171875 1.015625 -0.171875q1.21875 0 2.078125 0.859375q0.859375 0.84375 0.859375 2.078125q0 1.203125 -0.859375 2.046875q-0.859375 0.859375 -2.078125 0.859375q-0.984375 0 -1.78125 -0.53125q-0.796875 -0.515625 -1.421875 -1.125q-0.78125 -0.75 -1.390625 -1.734375q-0.59375 -1.0 -1.0625 -2.109375q-0.453125 -1.109375 -0.78125 -2.265625q-0.3125 -1.171875 -0.53125 -2.265625q-0.203125 -1.09375 -0.3125 -2.0625q-0.09375 -0.96875 -0.09375 -1.640625q0 -1.25 0.234375 -2.625q0.25 -1.390625 0.71875 -2.765625q0.484375 -1.390625 1.203125 -2.671875q0.71875 -1.28125 0.90625 -1.234375l-4.921875 0.171875l0 -3.890625l12.125 0zm21.189453 0l0 3.890625l-4.65625 0l0 20.71875l-3.953125 0l0 -3.359375q-1.671875 -3.203125 -4.546875 -4.75q-0.84375 -0.421875 -1.765625 -0.71875q-0.90625 -0.296875 -1.921875 -0.484375q-1.0 -0.203125 -2.171875 -0.296875q-1.171875 -0.09375 -3.296875 -0.09375l0 -3.828125l3.078125 0q0.65625 0 1.421875 -0.28125q0.765625 -0.28125 1.390625 -0.765625q0.625 -0.484375 1.015625 -1.078125q0.390625 -0.59375 0.390625 -1.234375q0 -1.109375 -0.609375 -1.828125q-0.609375 -0.71875 -1.59375 -1.171875q-0.96875 -0.46875 -2.203125 -0.640625q-1.21875 -0.1875 -2.28125 -0.1875l-2.59375 0l0 -3.890625l24.296875 0zm-8.609375 14.90625l0 -11.015625l-4.828125 -0.5q0.359375 -0.34375 0.90625 0.296875q0.5625 0.640625 0.875 1.328125q0.328125 0.671875 0.46875 1.359375q0.140625 0.671875 0.140625 1.328125q0 0.734375 -0.28125 1.53125q-0.28125 0.796875 -0.765625 1.515625q-0.46875 0.703125 -1.140625 1.328125q-0.65625 0.625 -0.953125 0.28125q1.25 -0.234375 3.015625 0.765625q2.203125 1.3125 2.5625 1.78125zm-6.203125 10.53125q0 1.203125 -0.859375 2.0625q-0.84375 0.859375 -2.078125 0.859375q-0.59375 0 -1.15625 -0.234375q-0.546875 -0.21875 -0.953125 -0.640625q-0.390625 -0.40625 -0.609375 -0.921875q-0.21875 -0.515625 -0.21875 -1.125q0 -0.625 0.21875 -1.140625q0.21875 -0.53125 0.625 -0.9375q0.40625 -0.421875 0.953125 -0.640625q0.5625 -0.21875 1.140625 -0.21875q1.234375 0 2.078125 0.859375q0.859375 0.84375 0.859375 2.078125z" fill-rule="nonzero"/><path fill="#0000ff" d="m348.34323 386.5184q0 2.015625 -0.703125 3.734375q-0.703125 1.71875 -1.953125 2.984375q-1.234375 1.265625 -2.890625 1.96875q-1.65625 0.703125 -3.53125 0.703125q-6.421875 0 -9.875 -6.3125q-1.78125 -3.359375 -3.75 -12.25l3.828125 -0.78125q1.046875 4.375 1.734375 6.765625q0.703125 2.375 1.25 3.546875q1.234375 2.65625 2.953125 3.9375q1.71875 1.265625 3.859375 1.265625q1.09375 0 2.015625 -0.421875q0.9375 -0.4375 1.625 -1.1875q0.703125 -0.765625 1.09375 -1.765625q0.390625 -1.015625 0.390625 -2.1875q0 -1.296875 -0.328125 -2.53125q-0.3125 -1.234375 -0.921875 -2.171875q-0.609375 -0.953125 -1.515625 -1.5q-0.890625 -0.546875 -2.0625 -0.546875q-0.84375 0 -1.328125 0.46875q-0.484375 0.46875 -0.484375 1.15625q0 0.640625 0.234375 1.125q0.25 0.46875 0.125 1.0625q-0.59375 0.09375 -0.59375 -0.46875q0 -0.59375 0.21875 -1.125q0.21875 -0.546875 0.625 -0.953125q0.40625 -0.40625 0.953125 -0.625q0.546875 -0.21875 1.140625 -0.21875q0.671875 0 1.203125 0.265625q0.546875 0.25 0.921875 0.671875q0.390625 0.40625 0.59375 0.9375q0.21875 0.515625 0.21875 1.046875q0 1.734375 -1.21875 2.84375q-1.203125 1.109375 -3.125 1.109375q-1.21875 0 -2.203125 -0.453125q-0.96875 -0.46875 -1.65625 -1.234375q-0.6875 -0.78125 -1.046875 -1.8125q-0.359375 -1.03125 -0.359375 -2.171875q0 -1.21875 0.46875 -2.21875q0.484375 -1.015625 1.296875 -1.71875q0.8125 -0.71875 1.84375 -1.109375q1.03125 -0.40625 2.171875 -0.40625q2.109375 0 3.75 0.921875q1.65625 0.90625 2.765625 2.390625q1.125 1.484375 1.6875 3.375q0.578125 1.875 0.578125 3.890625zm4.015625 -15.890625l0 3.890625l-28.3125 0l0 -3.890625l28.3125 0zm-0.140625 32.484375l0 3.421875q-1.875 0 -2.78125 -0.234375q-0.90625 -0.234375 -1.75 -0.703125q-0.84375 -0.46875 -1.609375 -1.109375q-0.765625 -0.625 -1.46875 -1.390625q-0.4375 -0.46875 -0.953125 -1.03125q-0.515625 -0.5625 -1.0625 -1.109375q-0.53125 -0.53125 -1.0625 -0.953125q-0.53125 -0.40625 -0.46875 -0.953125q0.53125 -0.140625 0.59375 0.078125q0.046875 0.21875 0.046875 0.609375q0 1.09375 -0.40625 1.9375q-0.40625 0.84375 -1.046875 1.40625q-0.65625 0.578125 -1.4375 0.875q-0.796875 0.296875 -1.625 0.296875q-0.875 0 -1.6875 -0.296875q-0.828125 -0.296875 -1.484375 -0.875q-0.65625 -0.578125 -1.015625 -1.421875q-0.375 -0.84375 -0.375 -1.921875q0 -0.890625 0.375 -1.734375q0.359375 -0.828125 1.0 -1.4375q0.625 -0.59375 1.453125 -0.96875q0.828125 -0.375 1.765625 -0.375l0 0.359375l-0.359375 -2.6875l3.96875 0l0 2.71875q0.5625 0.140625 1.5 0.75q0.953125 0.609375 1.78125 1.359375q0.84375 0.765625 1.578125 1.578125q0.734375 0.828125 1.453125 1.5625q0.9375 0.984375 1.984375 1.609375q1.046875 0.640625 3.09375 0.640625zm-13.828125 -3.375q0 -0.3125 -0.09375 -0.625q-0.09375 -0.3125 -0.15625 -0.40625q-0.125 -0.0625 -0.375 -0.140625q-0.25 -0.0625 -0.578125 -0.0625q-0.546875 0 -0.890625 0.390625q-0.359375 0.40625 -0.359375 0.84375q0 0.546875 0.3125 0.859375q0.3125 0.328125 0.9375 0.328125q0.59375 0 0.90625 -0.296875q0.296875 -0.296875 0.296875 -0.890625zm35.072266 -29.109375l0 3.890625l-4.65625 0l0 20.71875l-3.953125 0l0 -14.09375q0 -0.609375 -0.328125 -0.9375q-0.3125 -0.328125 -0.921875 -0.328125q-1.1875 0 -1.1875 3.265625l-3.96875 0q0 -2.359375 -0.46875 -3.0q-0.46875 -0.65625 -1.234375 -0.65625q-0.40625 0 -0.6875 0.1875q-0.265625 0.171875 -0.46875 0.53125q-0.1875 0.34375 -0.296875 0.84375q-0.09375 0.484375 -0.09375 0.96875q0 0.453125 0.09375 0.765625q0.09375 0.296875 -0.25 0.609375q-0.171875 -0.421875 0.234375 -0.578125q0.421875 -0.15625 0.9375 -0.15625q1.203125 0 2.046875 0.859375q0.859375 0.84375 0.859375 2.078125q0 1.21875 -0.859375 2.078125q-0.84375 0.84375 -2.046875 0.84375q-1.203125 0 -2.140625 -0.625q-0.921875 -0.640625 -1.546875 -1.578125q-0.625 -0.9375 -0.953125 -2.046875q-0.328125 -1.109375 -0.328125 -2.203125q0 -1.375 0.390625 -2.53125q0.390625 -1.15625 1.125 -2.03125q0.734375 -0.875 1.734375 -1.359375q1.015625 -0.484375 2.25 -0.484375q1.296875 0 2.375 0.546875q1.09375 0.53125 1.3125 0.8125q0.796875 -0.96875 3.28125 -0.96875q1.109375 0 1.21875 0.140625l-0.078125 -1.671875l-15.6875 0l0 -3.890625l24.296875 0zm6.8632812 32.484375l0 3.421875q-1.875 0 -2.78125 -0.234375q-0.90625 -0.234375 -1.75 -0.703125q-0.84375 -0.46875 -1.609375 -1.109375q-0.765625 -0.625 -1.46875 -1.390625q-0.4375 -0.46875 -0.953125 -1.03125q-0.515625 -0.5625 -1.0625 -1.109375q-0.53125 -0.53125 -1.0625 -0.953125q-0.53125 -0.40625 -0.46875 -0.953125q0.53125 -0.140625 0.59375 0.078125q0.046875 0.21875 0.046875 0.609375q0 1.09375 -0.40625 1.9375q-0.40625 0.84375 -1.046875 1.40625q-0.65625 0.578125 -1.4375 0.875q-0.796875 0.296875 -1.625 0.296875q-0.875 0 -1.6875 -0.296875q-0.828125 -0.296875 -1.484375 -0.875q-0.65625 -0.578125 -1.015625 -1.421875q-0.375 -0.84375 -0.375 -1.921875q0 -0.890625 0.375 -1.734375q0.359375 -0.828125 1.0 -1.4375q0.625 -0.59375 1.453125 -0.96875q0.828125 -0.375 1.765625 -0.375l0 0.359375l-0.359375 -2.6875l3.96875 0l0 2.71875q0.5625 0.140625 1.5 0.75q0.953125 0.609375 1.78125 1.359375q0.84375 0.765625 1.578125 1.578125q0.734375 0.828125 1.453125 1.5625q0.9375 0.984375 1.984375 1.609375q1.046875 0.640625 3.09375 0.640625zm-13.828125 -3.375q0 -0.3125 -0.09375 -0.625q-0.09375 -0.3125 -0.15625 -0.40625q-0.125 -0.0625 -0.375 -0.140625q-0.25 -0.0625 -0.578125 -0.0625q-0.546875 0 -0.890625 0.390625q-0.359375 0.40625 -0.359375 0.84375q0 0.546875 0.3125 0.859375q0.3125 0.328125 0.9375 0.328125q0.59375 0 0.90625 -0.296875q0.296875 -0.296875 0.296875 -0.890625zm28.128906 -29.109375l0 3.890625l-4.65625 0l0 20.71875l-3.953125 0l0 -5.140625q0 -0.828125 -0.265625 -1.828125q-0.25 -1.015625 -0.75 -2.0625q-0.5 -1.046875 -1.1875 -2.015625q-0.671875 -0.96875 -1.453125 -1.703125q-0.765625 -0.734375 -1.609375 -1.15625q-0.828125 -0.4375 -1.640625 -0.4375q-1.359375 0 -2.125 0.703125q-0.765625 0.6875 -0.765625 2.015625q0 0.3125 0.109375 0.640625q0.109375 0.328125 0.28125 0.5625q0.171875 0.234375 0.375 0.375q0.21875 0.125 0.40625 0.125q0.171875 0 0.265625 0q0.109375 -0.015625 0.25 0.59375q-0.6875 0.21875 -0.953125 -0.34375q-0.265625 -0.5625 -0.265625 -1.234375q0 -0.625 0.234375 -1.15625q0.234375 -0.53125 0.625 -0.921875q0.40625 -0.40625 0.9375 -0.625q0.546875 -0.234375 1.15625 -0.234375q1.21875 0 2.0625 0.859375q0.859375 0.84375 0.859375 2.078125q0 1.25 -0.546875 2.171875q-0.53125 0.921875 -1.3125 1.5q-0.765625 0.578125 -1.65625 0.859375q-0.890625 0.28125 -1.65625 0.28125q-1.0 0 -1.921875 -0.390625q-0.90625 -0.40625 -1.625 -1.140625q-0.703125 -0.734375 -1.125 -1.75q-0.421875 -1.03125 -0.421875 -2.25q0 -1.421875 0.53125 -2.640625q0.546875 -1.21875 1.484375 -2.0625q0.9375 -0.859375 2.171875 -1.34375q1.234375 -0.5 2.625 -0.5q2.703125 0 4.84375 1.59375q2.140625 1.59375 2.140625 1.796875l-0.078125 -5.9375l-15.6875 0l0 -3.890625l24.296875 0z" fill-rule="nonzero"/><path fill="#0000ff" d="m403.39987 397.11215l-4.59375 0l0 -27.796875l4.59375 0l0 27.796875z" fill-rule="nonzero"/><path fill="#990000" d="m144.72603 418.94778l0 3.890625l-2.78125 0q-0.59375 0 -0.859375 0.078125q-0.265625 0.078125 -0.359375 0.1875q-0.078125 0.109375 -0.140625 0.453125q-0.0625 0.328125 -0.0625 0.84375l0 20.859375l-3.96875 0l0 -18.578125q0 -1.75 -0.828125 -2.8125q-0.84375 -0.984375 -2.375 -1.03125l-0.125 0l0 20.71875l-3.96875 0l0 -4.203125q-0.125 -0.34375 -0.53125 -0.828125q-0.40625 -0.5 -0.921875 -0.921875q-0.515625 -0.4375 -1.09375 -0.71875q-0.5625 -0.28125 -0.546875 -0.28125q-2.234375 4.15625 -6.640625 4.15625q-1.171875 0 -2.203125 -0.296875q-1.03125 -0.296875 -1.921875 -0.75q-0.890625 -0.46875 -1.59375 -1.03125q-0.703125 -0.5625 -1.25 -1.0625q-1.34375 -1.328125 -2.46875 -2.90625q-1.109375 -1.59375 -2.390625 -3.609375l3.03125 -2.359375q0.78125 1.359375 1.3125 2.1875q0.53125 0.8125 1.09375 1.625q0.5625 0.8125 1.09375 1.484375q0.53125 0.671875 0.890625 0.984375q0.890625 0.78125 2.03125 1.359375q1.15625 0.5625 2.40625 0.5625q1.0 0 1.734375 -0.453125q0.734375 -0.453125 1.25 -1.234375q0.53125 -0.78125 0.796875 -1.78125q0.265625 -1.0 0.265625 -2.03125q0 -0.59375 -0.140625 -1.296875q-0.140625 -0.703125 -0.4375 -1.25q-0.296875 -0.5625 -0.703125 -0.875q-0.390625 -0.328125 -0.90625 -0.328125q-0.953125 0 -1.34375 0.078125q0.28125 -0.15625 0.765625 0.546875q0.484375 0.703125 0.484375 1.59375q0 1.234375 -0.859375 2.09375q-0.84375 0.84375 -2.0625 0.84375q-0.609375 0 -1.15625 -0.21875q-0.53125 -0.234375 -0.9375 -0.625q-0.390625 -0.40625 -0.625 -0.9375q-0.234375 -0.53125 -0.234375 -1.15625q0 -1.21875 0.484375 -2.3125q0.484375 -1.09375 1.28125 -1.921875q0.796875 -0.828125 1.875 -1.3125q1.09375 -0.484375 2.328125 -0.484375q1.578125 0 2.765625 0.734375q1.1875 0.71875 1.921875 1.828125q0.75 1.109375 1.109375 2.421875q0.359375 1.3125 0.359375 2.578125q0 1.046875 -0.140625 1.84375q2.109375 1.046875 2.046875 1.3125l-0.21875 -11.765625l-21.984375 0l0 -3.890625l26.203125 0q2.921875 0 4.40625 2.46875q-0.46875 -0.28125 -0.171875 -0.71875q0.3125 -0.453125 0.78125 -0.859375q0.484375 -0.40625 1.109375 -0.640625q0.640625 -0.25 1.4375 -0.25l3.6875 0zm21.121094 0l0 3.890625l-4.65625 0l0 20.71875l-3.953125 0l0 -5.03125q-0.0625 -0.5625 -0.484375 -1.390625q-0.421875 -0.84375 -1.046875 -1.640625q-0.625 -0.8125 -1.34375 -1.40625q-0.71875 -0.59375 -0.546875 -0.71875q0.171875 0.328125 -0.15625 1.328125q-0.3125 0.984375 -0.921875 1.75q-0.59375 0.765625 -1.515625 1.21875q-0.921875 0.453125 -2.140625 0.453125q-1.078125 0 -1.96875 -0.40625q-0.890625 -0.40625 -1.546875 -1.09375q-0.65625 -0.703125 -1.015625 -1.59375q-0.34375 -0.90625 -0.34375 -1.90625q0 -1.046875 0.40625 -1.953125q0.421875 -0.90625 1.140625 -1.53125q0.734375 -0.640625 1.671875 -0.984375q0.953125 -0.34375 2.046875 -0.359375q0.59375 0 0.59375 0.28125q-0.3125 -0.15625 -1.015625 -1.3125q-0.703125 -1.15625 -1.65625 -2.15625q-0.953125 -1.0 -2.0 -1.625q-1.03125 -0.640625 -1.890625 -0.640625l-1.953125 0l0 -3.890625l24.296875 0zm-8.046875 14.296875l-0.5625 -10.40625l-6.671875 0q0.28125 0.1875 1.609375 2.359375q1.328125 2.15625 1.640625 4.140625q0.3125 0.125 1.0625 0.609375q0.75 0.46875 1.453125 1.046875q0.703125 0.578125 1.3125 1.234375q0.609375 0.65625 0.15625 1.015625zm-7.53125 -1.171875q0.109375 0.046875 -0.796875 0.046875q-0.328125 0 -0.609375 0.0625q-0.265625 0.046875 -0.453125 0.1875q-0.1875 0.125 -0.296875 0.296875q-0.09375 0.171875 -0.09375 0.453125q0 0.25 0.0625 0.46875q0.078125 0.21875 0.203125 0.375q0.140625 0.15625 0.328125 0.25q0.203125 0.09375 0.46875 0.09375q1.1875 0 1.1875 -1.71875l0 -0.515625zm24.898438 -13.125l0 3.890625l-2.40625 0q-0.703125 0.03125 -0.984375 0.4375q-0.265625 0.40625 -0.265625 1.125l0 20.859375l-3.9375 0l0 -18.578125q0 -0.765625 -0.1875 -1.46875q-0.171875 -0.71875 -0.5 -1.25q-0.328125 -0.546875 -0.765625 -0.828125q-0.421875 -0.296875 -0.984375 -0.296875l-2.421875 0l0 -3.890625l2.421875 0q0.875 0 1.640625 0.25q0.765625 0.234375 1.359375 0.609375q0.59375 0.375 1.0 0.828125q0.421875 0.4375 -0.0625 0.796875q-0.328125 -0.953125 0.84375 -1.71875q1.171875 -0.765625 2.796875 -0.765625l2.453125 0zm21.125 0l0 3.890625l-4.65625 0l0 20.71875l-3.953125 0l0 -3.15625q-0.890625 -1.25 -2.296875 -2.3125q-1.40625 -1.0625 -3.125 -1.828125q-1.71875 -0.78125 -3.671875 -1.296875q-1.9375 -0.515625 -4.734375 -0.96875q0.59375 -3.5625 2.34375 -5.59375q1.75 -2.03125 4.40625 -3.015625q2.984375 -1.046875 7.078125 -1.046875l0 -1.5l-15.6875 0l0 -3.890625l24.296875 0zm-8.4375 16.25l-0.171875 -7.0625q-2.921875 0 -5.34375 0.8125q-2.953125 0.984375 -3.609375 2.234375q0.546875 0.078125 2.109375 0.515625q1.578125 0.4375 3.03125 1.0625q1.46875 0.609375 2.75 1.4375q1.296875 0.828125 1.234375 1.0zm-5.703125 5.078125q0 0.703125 -0.25 1.296875q-0.234375 0.578125 -0.703125 1.03125q-0.453125 0.453125 -1.046875 0.703125q-0.59375 0.25 -1.25 0.25q-0.71875 0 -1.328125 -0.25q-0.59375 -0.25 -1.046875 -0.703125q-0.4375 -0.453125 -0.6875 -1.03125q-0.25 -0.59375 -0.25 -1.296875q0 -0.6875 0.25 -1.265625q0.25 -0.59375 0.6875 -1.046875q0.453125 -0.453125 1.046875 -0.703125q0.609375 -0.25 1.328125 -0.25q1.375 0 2.3125 0.9375q0.9375 0.9375 0.9375 2.328125z" fill-rule="nonzero"/><path fill="#990000" d="m227.4897 418.94778l0 3.890625l-4.6875 0l0 20.71875l-3.953125 0l0 -7.921875q-0.21875 -0.703125 -0.65625 -1.484375q-0.421875 -0.796875 -0.9375 -1.390625q-0.5 -0.59375 -1.046875 -0.921875q-0.546875 -0.328125 -1.0625 -0.328125q-0.421875 0 -0.734375 0.09375q-0.296875 0.078125 -0.265625 -0.046875q0.09375 2.78125 -1.46875 4.421875q-1.546875 1.625 -4.78125 1.625q-0.75 0 -2.46875 -0.390625l0 -3.921875q1.65625 0.484375 2.734375 0.484375q0.59375 0 1.03125 -0.078125q0.453125 -0.078125 0.703125 -0.25q0.25 -0.1875 0.390625 -0.5q0.140625 -0.328125 0.140625 -0.953125q0 -0.9375 -0.28125 -1.625q-0.265625 -0.6875 -0.734375 -1.328125q-0.453125 -0.640625 -1.015625 -1.28125q-0.5625 -0.65625 -1.09375 -1.46875q-0.53125 -0.8125 -0.890625 -1.828125q-0.34375 -1.015625 -0.34375 -1.625l-2.90625 0l0 -3.890625l24.328125 0zm-8.375 10.75l-0.265625 -6.859375l-8.828125 0q0 0.28125 0.34375 0.984375q0.34375 0.703125 0.875 1.390625q0.546875 0.671875 1.21875 1.46875q0.671875 0.796875 0.765625 1.609375q-0.03125 -0.28125 0.671875 -0.4375q0.703125 -0.15625 1.25 -0.15625q1.359375 0 2.71875 0.875q1.375 0.859375 1.25 1.125zm17.664062 -10.75l0 3.890625l-2.40625 0q-0.703125 0.03125 -0.984375 0.4375q-0.265625 0.40625 -0.265625 1.125l0 20.859375l-3.9375 0l0 -18.578125q0 -0.765625 -0.1875 -1.46875q-0.171875 -0.71875 -0.5 -1.25q-0.328125 -0.546875 -0.765625 -0.828125q-0.421875 -0.296875 -0.984375 -0.296875l-2.421875 0l0 -3.890625l2.421875 0q0.875 0 1.640625 0.25q0.765625 0.234375 1.359375 0.609375q0.59375 0.375 1.0 0.828125q0.421875 0.4375 -0.0625 0.796875q-0.328125 -0.953125 0.84375 -1.71875q1.171875 -0.765625 2.796875 -0.765625l2.453125 0zm21.125015 0l0 3.890625l-4.6562653 0l0 20.71875l-3.953125 0l0 -14.09375q0 -0.609375 -0.328125 -0.9375q-0.3125 -0.328125 -0.921875 -0.328125q-1.1875 0 -1.1875 3.265625l-3.96875 0q0 -2.359375 -0.46875 -3.0q-0.46875 -0.65625 -1.234375 -0.65625q-0.40625 0 -0.6875 0.1875q-0.265625 0.171875 -0.46875 0.53125q-0.1875 0.34375 -0.296875 0.84375q-0.09375 0.484375 -0.09375 0.96875q0 0.453125 0.09375 0.765625q0.09375 0.296875 -0.25 0.609375q-0.171875 -0.421875 0.234375 -0.578125q0.421875 -0.15625 0.9375 -0.15625q1.203125 0 2.046875 0.859375q0.859375 0.84375 0.859375 2.078125q0 1.21875 -0.859375 2.078125q-0.84375 0.84375 -2.046875 0.84375q-1.203125 0 -2.140625 -0.625q-0.921875 -0.640625 -1.546875 -1.578125q-0.625 -0.9375 -0.953125 -2.046875q-0.328125 -1.109375 -0.328125 -2.203125q0 -1.375 0.390625 -2.53125q0.390625 -1.15625 1.125 -2.03125q0.734375 -0.875 1.734375 -1.359375q1.015625 -0.484375 2.25 -0.484375q1.296875 0 2.375 0.546875q1.09375 0.53125 1.3125 0.8125q0.796875 -0.96875 3.28125 -0.96875q1.109375 0 1.21875 0.140625l-0.078125 -1.671875l-15.6875 0l0 -3.890625l24.29689 0zm9.3203125 0l0 3.890625l-2.40625 0q-0.703125 0.03125 -0.984375 0.4375q-0.265625 0.40625 -0.265625 1.125l0 20.859375l-3.9375 0l0 -18.578125q0 -0.765625 -0.1875 -1.46875q-0.171875 -0.71875 -0.5 -1.25q-0.328125 -0.546875 -0.765625 -0.828125q-0.421875 -0.296875 -0.984375 -0.296875l-2.4218903 0l0 -3.890625l2.4218903 0q0.875 0 1.640625 0.25q0.765625 0.234375 1.359375 0.609375q0.59375 0.375 1.0 0.828125q0.421875 0.4375 -0.0625 0.796875q-0.328125 -0.953125 0.84375 -1.71875q1.171875 -0.765625 2.796875 -0.765625l2.453125 0zm22.0625 -3.03125l-2.671875 2.78125q-2.453125 -2.84375 -5.109375 -3.953125q-2.65625 -1.125 -6.0625 -1.125q-0.8125 0 -1.71875 0.203125q-0.890625 0.203125 -1.640625 0.640625q-0.734375 0.421875 -1.203125 1.0625q-0.453125 0.640625 -0.453125 1.578125q0 0.8125 0.3125 1.21875q0.3125 0.40625 0.90625 0.625l4.453125 0l0 3.890625l-4.65625 0l0 22.421875l-3.984375 0l0 -22.421875l-3.40625 0l0 -3.890625l3.453125 0.40625q-0.40625 0.125 -0.625 -0.671875q-0.21875 -0.796875 -0.21875 -1.578125q0 -1.796875 0.765625 -3.15625q0.78125 -1.359375 2.03125 -2.265625q1.25 -0.90625 2.8125 -1.328125q1.578125 -0.4375 3.171875 -0.4375q2.109375 0 3.890625 0.28125q1.796875 0.28125 3.390625 0.953125q1.609375 0.65625 3.0625 1.703125q1.46875 1.03125 3.5 3.0625zm7.9570312 3.03125l0 3.890625l-4.65625 0l0 20.71875l-3.953125 0l0 -5.03125q-0.0625 -0.5625 -0.484375 -1.390625q-0.421875 -0.84375 -1.046875 -1.640625q-0.625 -0.8125 -1.34375 -1.40625q-0.71875 -0.59375 -0.546875 -0.71875q0.171875 0.328125 -0.15625 1.328125q-0.3125 0.984375 -0.921875 1.75q-0.59375 0.765625 -1.515625 1.21875q-0.921875 0.453125 -2.140625 0.453125q-1.078125 0 -1.96875 -0.40625q-0.890625 -0.40625 -1.546875 -1.09375q-0.65625 -0.703125 -1.015625 -1.59375q-0.34375 -0.90625 -0.34375 -1.90625q0 -1.046875 0.40625 -1.953125q0.421875 -0.90625 1.140625 -1.53125q0.734375 -0.640625 1.671875 -0.984375q0.953125 -0.34375 2.046875 -0.359375q0.59375 0 0.59375 0.28125q-0.3125 -0.15625 -1.015625 -1.3125q-0.703125 -1.15625 -1.65625 -2.15625q-0.953125 -1.0 -2.0 -1.625q-1.03125 -0.640625 -1.890625 -0.640625l-1.953125 0l0 -3.890625l24.296875 0zm-8.046875 14.296875l-0.5625 -10.40625l-6.671875 0q0.28125 0.1875 1.609375 2.359375q1.328125 2.15625 1.640625 4.140625q0.3125 0.125 1.0625 0.609375q0.75 0.46875 1.453125 1.046875q0.703125 0.578125 1.3125 1.234375q0.609375 0.65625 0.15625 1.015625zm-7.53125 -1.171875q0.109375 0.046875 -0.796875 0.046875q-0.328125 0 -0.609375 0.0625q-0.265625 0.046875 -0.453125 0.1875q-0.1875 0.125 -0.296875 0.296875q-0.09375 0.171875 -0.09375 0.453125q0 0.25 0.0625 0.46875q0.078125 0.21875 0.203125 0.375q0.140625 0.15625 0.328125 0.25q0.203125 0.09375 0.46875 0.09375q1.1875 0 1.1875 -1.71875l0 -0.515625z" fill-rule="nonzero"/><path fill="#990000" d="m332.0034 415.30716l0 4.453125l-5.34375 0l0 23.796875l-4.546875 0l0 -5.90625q0 -0.9375 -0.296875 -2.09375q-0.296875 -1.15625 -0.875 -2.359375q-0.5625 -1.203125 -1.34375 -2.3125q-0.765625 -1.125 -1.65625 -1.96875q-0.890625 -0.859375 -1.84375 -1.34375q-0.953125 -0.484375 -1.90625 -0.484375q-1.5625 0 -2.4375 0.796875q-0.875 0.796875 -0.875 2.328125q0 0.359375 0.125 0.734375q0.125 0.375 0.328125 0.65625q0.203125 0.265625 0.4375 0.421875q0.234375 0.140625 0.453125 0.140625q0.203125 0 0.3125 0q0.109375 -0.015625 0.296875 0.703125q-0.8125 0.234375 -1.109375 -0.40625q-0.296875 -0.65625 -0.296875 -1.421875q0 -0.703125 0.25 -1.3125q0.25 -0.609375 0.71875 -1.0625q0.46875 -0.46875 1.078125 -0.734375q0.625 -0.265625 1.328125 -0.265625q1.40625 0 2.375 0.984375q0.984375 0.96875 0.984375 2.390625q0 1.4375 -0.625 2.484375q-0.625 1.046875 -1.515625 1.734375q-0.875 0.671875 -1.90625 0.984375q-1.03125 0.3125 -1.890625 0.3125q-1.140625 0 -2.203125 -0.453125q-1.046875 -0.453125 -1.859375 -1.296875q-0.8125 -0.84375 -1.296875 -2.015625q-0.484375 -1.1875 -0.484375 -2.578125q0 -1.640625 0.609375 -3.03125q0.609375 -1.390625 1.6875 -2.375q1.078125 -1.0 2.5 -1.546875q1.4375 -0.546875 3.015625 -0.546875q3.09375 0 5.546875 1.828125q2.453125 1.828125 2.46875 2.046875l-0.09375 -6.828125l-18.0 0l0 -4.453125l27.890625 0zm24.296417 0l0 4.453125l-5.34375 0l0 23.796875l-4.546875 0l0 -3.859375q-1.90625 -3.6875 -5.203125 -5.453125q-0.984375 -0.5 -2.03125 -0.828125q-1.046875 -0.34375 -2.203125 -0.5625q-1.15625 -0.21875 -2.5 -0.328125q-1.34375 -0.109375 -3.78125 -0.109375l0 -4.375l3.515625 0q0.78125 0 1.640625 -0.328125q0.875 -0.328125 1.59375 -0.890625q0.734375 -0.5625 1.171875 -1.234375q0.453125 -0.671875 0.453125 -1.421875q0 -1.28125 -0.703125 -2.09375q-0.6875 -0.828125 -1.828125 -1.34375q-1.125 -0.53125 -2.53125 -0.75q-1.390625 -0.21875 -2.609375 -0.21875l-2.984375 0l0 -4.453125l27.890625 0zm-9.890625 17.109375l0 -12.65625l-5.53125 -0.5625q0.40625 -0.40625 1.03125 0.34375q0.640625 0.734375 1.015625 1.515625q0.375 0.78125 0.53125 1.5625q0.15625 0.765625 0.15625 1.53125q0 0.84375 -0.3125 1.765625q-0.3125 0.90625 -0.875 1.734375q-0.546875 0.8125 -1.3125 1.53125q-0.765625 0.71875 -1.109375 0.3125q1.421875 -0.265625 3.484375 0.890625q2.515625 1.5 2.921875 2.03125zm-7.125 12.078125q0 1.390625 -0.984375 2.375q-0.96875 0.984375 -2.375 0.984375q-0.671875 0 -1.3125 -0.265625q-0.625 -0.265625 -1.09375 -0.71875q-0.453125 -0.453125 -0.71875 -1.0625q-0.25 -0.609375 -0.25 -1.3125q0 -0.6875 0.25 -1.296875q0.25 -0.625 0.71875 -1.078125q0.46875 -0.46875 1.09375 -0.71875q0.640625 -0.265625 1.3125 -0.265625q1.40625 0 2.375 0.984375q0.984375 0.96875 0.984375 2.375zm46.343292 -29.1875l0 4.453125l-13.421875 0l0 1.71875q0.90625 -0.015625 2.71875 0.515625q1.8125 0.515625 3.28125 1.59375q1.46875 1.078125 2.40625 2.703125q0.9375 1.609375 0.9375 3.609375q0 1.578125 -0.46875 2.796875q-0.46875 1.203125 -1.25 2.0625q-0.765625 0.859375 -1.796875 1.296875q-1.03125 0.4375 -2.0625 0.4375q-0.703125 0 -1.328125 -0.25q-0.609375 -0.265625 -1.078125 -0.71875q-0.453125 -0.453125 -0.71875 -1.046875q-0.265625 -0.609375 -0.265625 -1.328125q0 -0.6875 0.265625 -1.3125q0.265625 -0.625 0.71875 -1.078125q0.46875 -0.453125 1.078125 -0.703125q0.625 -0.265625 1.328125 -0.265625q0.703125 0 1.296875 0.265625q0.59375 0.265625 0.3125 0.859375q-0.609375 -0.109375 -0.59375 -0.34375q0.015625 -0.234375 0.015625 -0.671875q0 -0.921875 -0.5 -1.671875q-0.484375 -0.765625 -1.296875 -1.296875q-0.796875 -0.53125 -1.828125 -0.8125q-1.03125 -0.296875 -1.171875 -0.296875l0 17.734375l-4.546875 0l0 -3.671875q-0.890625 -1.625 -2.21875 -2.859375q-1.3125 -1.25 -2.859375 -2.078125q-1.546875 -0.84375 -3.3125 -1.359375q-1.765625 -0.515625 -4.453125 -1.0625q0.625 -3.09375 1.765625 -4.921875q1.140625 -1.828125 2.859375 -3.125q1.734375 -1.3125 4.015625 -2.078125q2.28125 -0.765625 4.203125 -0.859375l0 -1.78125l-14.953125 0l0 -4.453125l32.921875 0zm-17.96875 17.59375l0 -7.015625q-2.484375 0.09375 -4.53125 1.296875q-2.046875 1.1875 -2.53125 2.0625q1.796875 0.3125 4.234375 1.78125q2.453125 1.46875 2.828125 1.875zm28.644745 -17.59375l0 4.453125l-2.765625 0q-0.8125 0.046875 -1.125 0.53125q-0.3125 0.46875 -0.3125 1.28125l0 23.9375l-4.53125 0l0 -21.3125q0 -0.890625 -0.203125 -1.71875q-0.1875 -0.828125 -0.5625 -1.421875q-0.375 -0.609375 -0.875 -0.953125q-0.5 -0.34375 -1.140625 -0.34375l-2.78125 0l0 -4.453125l2.78125 0q1.03125 0 1.890625 0.28125q0.859375 0.28125 1.53125 0.703125q0.6875 0.421875 1.171875 0.953125q0.484375 0.515625 -0.09375 0.9375q-0.359375 -1.109375 0.984375 -1.984375q1.34375 -0.890625 3.203125 -0.890625l2.828125 0zm24.248657 0l0 4.453125l-5.34375 0l0 23.796875l-4.546875 0l0 -21.53125q0 -0.34375 -0.21875 -0.6875q-0.203125 -0.34375 -0.5625 -0.625q-0.359375 -0.28125 -0.8125 -0.421875q-0.453125 -0.15625 -0.859375 -0.15625q-0.53125 0 -0.984375 0.203125q-0.4375 0.203125 -0.78125 0.578125q-0.328125 0.375 -0.53125 0.859375q-0.1875 0.484375 -0.609375 0.328125q-0.015625 -0.46875 0.796875 -0.46875q1.53125 0 2.578125 1.046875q1.046875 1.046875 1.046875 2.578125l0 4.765625q-5.09375 -0.234375 -6.3125 -2.0q-1.4375 1.953125 -6.28125 1.953125q0.03125 -2.0 0.03125 -2.671875l0 -1.078125q0 -0.390625 -0.015625 -0.578125q0 -0.1875 0 -0.390625q0 -1.53125 1.046875 -2.578125q1.0625 -1.046875 2.59375 -1.046875q0.796875 0 0.828125 0.5q-0.4375 0.140625 -0.640625 -0.421875q-0.1875 -0.5625 -0.5 -1.0q-0.3125 -0.4375 -0.71875 -0.6875q-0.390625 -0.265625 -0.828125 -0.265625l-6.265625 0l0 -4.453125l6.265625 0q0.8125 0 1.59375 0.265625q0.78125 0.265625 1.46875 0.703125q0.6875 0.4375 1.25 1.015625q0.578125 0.5625 0.234375 0.875q1.21875 -2.421875 4.734375 -2.421875q0.9375 0 1.921875 0.328125q1.0 0.3125 0.890625 0.6875l-0.359375 -1.453125l9.890625 0z" fill-rule="nonzero"/><path fill="#990000" d="m455.63174 418.94778l0 3.890625l-11.6875 0l0 1.484375q0.78125 -0.015625 2.359375 0.4375q1.59375 0.453125 2.875 1.40625q1.28125 0.9375 2.09375 2.34375q0.8125 1.40625 0.8125 3.15625q0 1.359375 -0.40625 2.4375q-0.40625 1.0625 -1.09375 1.8125q-0.671875 0.734375 -1.5625 1.109375q-0.890625 0.375 -1.796875 0.375q-0.59375 0 -1.140625 -0.21875q-0.546875 -0.21875 -0.953125 -0.609375q-0.390625 -0.40625 -0.625 -0.9375q-0.234375 -0.53125 -0.234375 -1.140625q0 -0.609375 0.234375 -1.140625q0.234375 -0.53125 0.625 -0.9375q0.40625 -0.40625 0.9375 -0.625q0.546875 -0.234375 1.15625 -0.234375q0.609375 0 1.125 0.234375q0.515625 0.234375 0.28125 0.75q-0.53125 -0.09375 -0.515625 -0.296875q0.015625 -0.203125 0.015625 -0.578125q0 -0.8125 -0.4375 -1.46875q-0.421875 -0.65625 -1.125 -1.125q-0.703125 -0.46875 -1.609375 -0.71875q-0.890625 -0.25 -1.015625 -0.25l0 15.453125l-3.953125 0l0 -3.203125q-0.78125 -1.40625 -1.9375 -2.484375q-1.140625 -1.09375 -2.5 -1.8125q-1.34375 -0.71875 -2.890625 -1.171875q-1.53125 -0.453125 -3.875 -0.921875q0.5625 -2.703125 1.546875 -4.296875q1.0 -1.59375 2.5 -2.734375q1.5 -1.140625 3.484375 -1.796875q1.984375 -0.671875 3.671875 -0.75l0 -1.546875l-13.03125 0l0 -3.890625l28.671875 0zm-15.640625 15.3125l0 -6.09375q-2.171875 0.078125 -3.953125 1.125q-1.765625 1.03125 -2.203125 1.796875q1.578125 0.265625 3.703125 1.546875q2.140625 1.28125 2.453125 1.625zm45.679688 -15.3125l0 3.890625l-13.546875 0l0 6.578125q1.0 1.078125 2.28125 1.734375q1.296875 0.65625 2.46875 0.65625q0.5625 0 0.9375 -0.390625q0.390625 -0.40625 0.390625 -0.96875q0 -0.25 -0.109375 -0.5q-0.09375 -0.25 -0.28125 -0.4375q-0.1875 -0.1875 -0.4375 -0.296875q-0.234375 -0.125 -0.484375 -0.125q-0.484375 0 -1.296875 0.671875l-2.296875 -2.75q1.515625 -1.734375 3.65625 -1.734375q1.0625 0 1.984375 0.421875q0.9375 0.421875 1.625 1.125q0.6875 0.703125 1.0625 1.65625q0.390625 0.953125 0.390625 1.984375q0 1.140625 -0.4375 2.09375q-0.421875 0.9375 -1.15625 1.640625q-0.734375 0.6875 -1.703125 1.078125q-0.96875 0.375 -2.046875 0.375q-1.484375 0 -2.96875 -0.59375q-1.484375 -0.609375 -1.578125 -0.6875l0 9.1875l-3.953125 0l0 -3.15625q-0.890625 -1.25 -2.296875 -2.3125q-1.40625 -1.0625 -3.125 -1.828125q-1.71875 -0.78125 -3.671875 -1.296875q-1.9375 -0.515625 -4.734375 -0.96875q0.59375 -3.5625 2.34375 -5.59375q1.75 -2.03125 4.40625 -3.015625q2.984375 -1.046875 7.078125 -1.046875l0 -1.5l-15.6875 0l0 -3.890625l33.1875 0zm-17.328125 16.25l-0.171875 -7.0625q-2.921875 0 -5.34375 0.8125q-2.953125 0.984375 -3.609375 2.234375q0.546875 0.078125 2.109375 0.515625q1.578125 0.4375 3.03125 1.0625q1.46875 0.609375 2.75 1.4375q1.296875 0.828125 1.234375 1.0zm-5.703125 5.078125q0 0.703125 -0.25 1.296875q-0.234375 0.578125 -0.703125 1.03125q-0.453125 0.453125 -1.046875 0.703125q-0.59375 0.25 -1.25 0.25q-0.71875 0 -1.328125 -0.25q-0.59375 -0.25 -1.046875 -0.703125q-0.4375 -0.453125 -0.6875 -1.03125q-0.25 -0.59375 -0.25 -1.296875q0 -0.6875 0.25 -1.265625q0.25 -0.59375 0.6875 -1.046875q0.453125 -0.453125 1.046875 -0.703125q0.609375 -0.25 1.328125 -0.25q1.375 0 2.3125 0.9375q0.9375 0.9375 0.9375 2.328125zm44.164062 -21.328125l0 3.890625l-4.65625 0l0 20.71875l-3.953125 0l0 -5.140625q0 -0.828125 -0.265625 -1.828125q-0.25 -1.015625 -0.75 -2.0625q-0.5 -1.046875 -1.1875 -2.015625q-0.671875 -0.96875 -1.453125 -1.703125q-0.765625 -0.734375 -1.609375 -1.15625q-0.828125 -0.4375 -1.640625 -0.4375q-1.359375 0 -2.125 0.703125q-0.765625 0.6875 -0.765625 2.015625q0 0.3125 0.109375 0.640625q0.109375 0.328125 0.28125 0.5625q0.171875 0.234375 0.375 0.375q0.21875 0.125 0.40625 0.125q0.171875 0 0.265625 0q0.109375 -0.015625 0.25 0.59375q-0.6875 0.21875 -0.953125 -0.34375q-0.265625 -0.5625 -0.265625 -1.234375q0 -0.625 0.234375 -1.15625q0.234375 -0.53125 0.625 -0.921875q0.40625 -0.40625 0.9375 -0.625q0.546875 -0.234375 1.15625 -0.234375q1.21875 0 2.0625 0.859375q0.859375 0.84375 0.859375 2.078125q0 1.25 -0.546875 2.171875q-0.53125 0.921875 -1.3125 1.5q-0.765625 0.578125 -1.65625 0.859375q-0.890625 0.28125 -1.65625 0.28125q-1.0 0 -1.921875 -0.390625q-0.90625 -0.40625 -1.625 -1.140625q-0.703125 -0.734375 -1.125 -1.75q-0.421875 -1.03125 -0.421875 -2.25q0 -1.421875 0.53125 -2.640625q0.546875 -1.21875 1.484375 -2.0625q0.9375 -0.859375 2.171875 -1.34375q1.234375 -0.5 2.625 -0.5q2.703125 0 4.84375 1.59375q2.140625 1.59375 2.140625 1.796875l-0.078125 -5.9375l-15.6875 0l0 -3.890625l24.296875 0z" fill-rule="nonzero"/><path fill="#990000" d="m515.577 445.43216l-4.5937195 0l0 -27.796875l4.5937195 0l0 27.796875z" fill-rule="nonzero"/><path fill="#6aa84f" d="m532.47205 308.72665l-45.99997 -102.85039l100.70865 13.055115z" fill-rule="evenodd"/><path stroke="#595959" stroke-width="1.0" stroke-linejoin="round" stroke-linecap="butt" d="m532.47205 308.72665l-45.99997 -102.85039l100.70865 13.055115z" fill-rule="evenodd"/><path fill="#e69138" d="m688.25256 274.8698l-28.37793 -171.1496l-128.97638 205.00787z" fill-rule="evenodd"/><path stroke="#595959" stroke-width="1.0" stroke-linejoin="round" stroke-linecap="butt" d="m688.25256 274.8698l-28.37793 -171.1496l-128.97638 205.00787z" fill-rule="evenodd"/><path fill="#a64d79" d="m483.2872 196.56154l23.937012 57.165344l-83.08661 -24.913376z" fill-rule="evenodd"/><path stroke="#741b47" stroke-width="1.0" stroke-linejoin="round" stroke-linecap="butt" d="m483.2872 196.56154l23.937012 57.165344l-83.08661 -24.913376z" fill-rule="evenodd"/><path fill="#cc4125" d="m661.55 102.20473l267.25415 28.914948l-238.6242 142.48662z" fill-rule="evenodd"/><path stroke="#595959" stroke-width="1.0" stroke-linejoin="round" stroke-linecap="butt" d="m661.55 102.20473l267.25415 28.914948l-238.6242 142.48662z" fill-rule="evenodd"/><path fill="#cc0000" d="m676.7054 386.33057l-148.15747 -76.64569l159.68506 -35.763763z" fill-rule="evenodd"/><path stroke="#595959" stroke-width="1.0" stroke-linejoin="round" stroke-linecap="butt" d="m676.7054 386.33057l-148.15747 -76.64569l159.68506 -35.763763z" fill-rule="evenodd"/><path fill="#434343" d="m686.40753 273.6145l-1.8110352 109.18112l94.252014 19.606293z" fill-rule="evenodd"/><path stroke="#595959" stroke-width="1.0" stroke-linejoin="round" stroke-linecap="butt" d="m686.40753 273.6145l-1.8110352 109.18112l94.252014 19.606293z" fill-rule="evenodd"/><path fill="#434343" d="m785.11127 400.62863l-0.61413574 -109.212585l-94.66144 -16.86615z" fill-rule="evenodd"/><path stroke="#595959" stroke-width="1.0" stroke-linejoin="round" stroke-linecap="butt" d="m785.11127 400.62863l-0.61413574 -109.212585l-94.66144 -16.86615z" fill-rule="evenodd"/><path fill="#ffffff" d="m94.41732 210.76115l0 0c0 -72.11882 60.5579 -130.58267 135.25986 -130.58267l0 0c35.873123 0 70.27699 13.757782 95.64314 38.24678c25.36615 24.489006 39.6167 57.703224 39.6167 92.3359l0 0c0 72.11882 -60.55789 130.58269 -135.25984 130.58269l0 0c-74.70195 0 -135.25986 -58.463867 -135.25986 -130.58269z" fill-rule="evenodd"/><path stroke="#cc0000" stroke-width="8.0" stroke-linejoin="round" stroke-linecap="butt" d="m94.41732 210.76115l0 0c0 -72.11882 60.5579 -130.58267 135.25986 -130.58267l0 0c35.873123 0 70.27699 13.757782 95.64314 38.24678c25.36615 24.489006 39.6167 57.703224 39.6167 92.3359l0 0c0 72.11882 -60.55789 130.58269 -135.25984 130.58269l0 0c-74.70195 0 -135.25986 -58.463867 -135.25986 -130.58269z" fill-rule="evenodd"/><path fill="#000000" fill-opacity="0.0" d="m139.16273 179.90552l206.92912 0l0 67.87401l-206.92912 0z" fill-rule="evenodd"/><path fill="#990000" d="m169.89711 227.30551l-5.484375 0l0 -10.59375q0 -3.359375 -0.359375 -4.34375q-0.34375 -0.984375 -1.140625 -1.53125q-0.78125 -0.546875 -1.890625 -0.546875q-1.4375 0 -2.578125 0.78125q-1.125 0.78125 -1.546875 2.078125q-0.40625 1.28125 -0.40625 4.765625l0 9.390625l-5.5 0l0 -20.75l5.109375 0l0 3.046875q2.703125 -3.515625 6.828125 -3.515625q1.8125 0 3.3125 0.65625q1.515625 0.65625 2.28125 1.671875q0.78125 1.015625 1.078125 2.3125q0.296875 1.28125 0.296875 3.6875l0 12.890625zm4.3085938 -10.671875q0 -2.734375 1.34375 -5.28125q1.34375 -2.5625 3.8125 -3.90625q2.46875 -1.359375 5.515625 -1.359375q4.71875 0 7.71875 3.0625q3.015625 3.0625 3.015625 7.71875q0 4.71875 -3.046875 7.8125q-3.03125 3.09375 -7.640625 3.09375q-2.859375 0 -5.453125 -1.28125q-2.578125 -1.296875 -3.921875 -3.78125q-1.34375 -2.5 -1.34375 -6.078125zm5.625 0.296875q0 3.09375 1.453125 4.734375q1.46875 1.640625 3.625 1.640625q2.140625 0 3.59375 -1.640625q1.453125 -1.640625 1.453125 -4.765625q0 -3.046875 -1.453125 -4.6875q-1.453125 -1.640625 -3.59375 -1.640625q-2.15625 0 -3.625 1.640625q-1.453125 1.640625 -1.453125 4.71875zm17.480469 -10.375l5.828125 0l4.96875 14.734375l4.84375 -14.734375l5.6875 0l-7.328125 19.96875l-1.3125 3.609375q-0.71875 1.828125 -1.375 2.78125q-0.65625 0.953125 -1.515625 1.546875q-0.84375 0.59375 -2.078125 0.921875q-1.234375 0.34375 -2.796875 0.34375q-1.59375 0 -3.109375 -0.328125l-0.484375 -4.296875q1.28125 0.25 2.3125 0.25q1.921875 0 2.828125 -1.125q0.921875 -1.125 1.421875 -2.859375l-7.890625 -20.8125z" fill-rule="nonzero"/><path fill="#000000" d="m222.26039 227.30551l0 -28.640625l5.78125 0l0 12.71875l11.6875 -12.71875l7.765625 0l-10.78125 11.15625l11.375 17.484375l-7.484375 0l-7.875 -13.4375l-4.6875 4.78125l0 8.65625l-5.78125 0zm32.871094 -14.421875l-4.96875 -0.890625q0.828125 -3.015625 2.875 -4.453125q2.0625 -1.453125 6.1093597 -1.453125q3.671875 0 5.46875 0.875q1.796875 0.875 2.515625 2.21875q0.734375 1.328125 0.734375 4.90625l-0.046875 6.40625q0 2.734375 0.25 4.03125q0.265625 1.296875 1.0 2.78125l-5.4375 0q-0.21875 -0.546875 -0.53125 -1.625q-0.125 -0.484375 -0.1875 -0.640625q-1.40625 1.359375 -3.015625 2.046875q-1.59375 0.6875 -3.40625 0.6875q-3.2031097 0 -5.0624847 -1.734375q-1.84375 -1.75 -1.84375 -4.40625q0 -1.75 0.84375 -3.125q0.84375 -1.375 2.359375 -2.109375q1.515625 -0.734375 4.3593597 -1.28125q3.84375 -0.71875 5.328125 -1.34375l0 -0.546875q0 -1.59375 -0.78125 -2.265625q-0.78125 -0.671875 -2.9375 -0.671875q-1.46875 0 -2.296875 0.578125q-0.81248474 0.578125 -1.3281097 2.015625zm7.3437347 4.453125q-1.046875 0.359375 -3.34375 0.84375q-2.28125 0.484375 -2.984375 0.953125q-1.0624847 0.765625 -1.0624847 1.9375q0 1.15625 0.859375 2.0q0.85935974 0.828125 2.1874847 0.828125q1.484375 0 2.828125 -0.96875q1.0 -0.75 1.3125 -1.8125q0.203125 -0.703125 0.203125 -2.6875l0 -1.09375zm8.871094 4.046875l5.515625 -0.84375q0.34375 1.609375 1.421875 2.4375q1.078125 0.828125 3.0 0.828125q2.140625 0 3.203125 -0.78125q0.734375 -0.546875 0.734375 -1.46875q0 -0.625 -0.390625 -1.03125q-0.421875 -0.390625 -1.84375 -0.71875q-6.640625 -1.46875 -8.421875 -2.671875q-2.453125 -1.6875 -2.453125 -4.671875q0 -2.703125 2.125 -4.53125q2.125 -1.84375 6.609375 -1.84375q4.25 0 6.3125 1.390625q2.078125 1.390625 2.859375 4.109375l-5.171875 0.953125q-0.328125 -1.21875 -1.265625 -1.859375q-0.921875 -0.640625 -2.640625 -0.640625q-2.171875 0 -3.109375 0.609375q-0.625 0.421875 -0.625 1.109375q0 0.578125 0.546875 1.0q0.75 0.546875 5.125 1.546875q4.390625 0.984375 6.125 2.4375q1.71875 1.453125 1.71875 4.078125q0 2.84375 -2.390625 4.90625q-2.375 2.046875 -7.046875 2.046875q-4.234375 0 -6.703125 -1.71875q-2.46875 -1.71875 -3.234375 -4.671875zm29.652344 -22.71875l0 10.53125q2.65625 -3.109375 6.34375 -3.109375q1.890625 0 3.40625 0.703125q1.53125 0.703125 2.296875 1.796875q0.78125 1.09375 1.0625 2.421875q0.28125 1.328125 0.28125 4.125l0 12.171875l-5.484375 0l0 -10.953125q0 -3.265625 -0.3125 -4.140625q-0.3125 -0.890625 -1.109375 -1.40625q-0.78125 -0.515625 -1.96875 -0.515625q-1.375 0 -2.453125 0.671875q-1.0625 0.65625 -1.5625 2.0q-0.5 1.328125 -0.5 3.953125l0 10.390625l-5.484375 0l0 -28.640625l5.484375 0z" fill-rule="nonzero"/></g></svg>