<?xml version="1.0" encoding="utf-8"?>
<!-- Generator: Adobe Illustrator 23.0.1, SVG Export Plug-In . SVG Version: 6.00 Build 0)  -->
<svg version="1.1" id="Layer_1" xmlns="http://www.w3.org/2000/svg" xmlns:xlink="http://www.w3.org/1999/xlink" x="0px" y="0px"
	 viewBox="0 0 1417.32 1417.32" style="enable-background:new 0 0 1417.32 1417.32;" xml:space="preserve">
<style type="text/css">
	.st0{fill:#D12053;}
	.st1{fill:#E2136E;}
	.st2{fill:#9E1638;}
</style>
<g>
	<g>
		<polygon class="st0" points="917.27,697.31 948.43,837.31 1152.23,734.13 		"/>
		<polygon class="st1" points="975.18,488.1 917.32,697.32 1152.23,734.13 		"/>
		<polygon class="st0" points="726.28,457.4 969.27,486.42 911.82,694.48 		"/>
		<polygon class="st2" points="724.3,498.35 751.4,498.35 827.34,595.42 		"/>
		<polygon class="st0" points="1158.78,732.77 1088.08,635.05 1202.36,614.53 		"/>
		<polygon class="st1" points="1146.94,761.49 1154.14,739.66 975.84,830.21 		"/>
		<polygon class="st2" points="912.32,702.84 949.48,870.12 839.02,959.92 		"/>
		<polygon class="st1" points="1191.2,664.28 1256.07,663.19 1209.2,615.45 		"/>
		<path class="st1" d="M161.26,635.02c3.15,0.28,6.33,0.86,9.7,0.86c3.2,0,6.11-0.58,9.71-0.86v104.02
			c10.24-17.41,23.14-28.9,42.11-28.9c34.29,0,49.01,33.96,49.01,65.15c0,37.37-19.93,73.13-54.9,73.13
			c-19.9,0-30.11-12.41-34.44-20.03c-5.85,5.14-11.02,11.29-16.58,16.87h-4.6V635.02z M180.21,787.97
			c0,30.3,12.86,51.43,34.01,51.43c27.41,0,36.22-36.86,36.22-63.01c0-30.34-9.99-54.22-33.74-54.52
			C188.95,721.63,180.21,754.48,180.21,787.97"/>
		<path d="M361.21,702.31l-20.67,26.53c19.42,28.41,39.55,56.17,59.04,84.9l19.66,30.86v1.52c-4.81-0.29-9.24-0.92-13.39-0.92
			c-4.56,0-9.21,0.62-13.57,0.92c-5.36-9.91-10.71-19.11-16.75-28.1l-52.97-78.67c-1.2-1.25-4.11-2.2-4.11-0.93v107.69
			c-3.9-0.29-7.29-0.92-10.69-0.92c-3.63,0-7.28,0.62-10.68,0.92v-211.1c3.4,0.28,7.04,0.94,10.68,0.94c3.4,0,6.79-0.66,10.69-0.94
			v95.37c0.22,1.85,3.62,0.62,6.03-1.86c4.41-4.28,9.51-10.78,12.89-15.08l59.77-78.43c3.15,0.28,6.3,0.94,9.74,0.94
			c2.88,0,6.03-0.66,9.46-0.94L361.21,702.31z"/>
		<path d="M522.03,822.51c0,11.02-0.7,16.6,13.62,12.96v6.17c-1.75,0.82-4.66,2.18-7.31,2.79c-12.66,2.55-23.13,0.26-25.06-16.28
			l-2.15,2.45c-10.21,11.85-21.4,17.81-35.99,17.81c-17.21,0-32.26-13.55-32.26-34.36c0-32.03,22.07-36.25,44.9-40.47
			c19.25-3.62,25.79-5.33,25.79-18.84c0-20.8-10.21-32.87-28.44-32.87c-17.73,0-27.19,13.23-28.91,19.38h-2.65v-15.7
			c11.62-9.29,24.78-15.41,39.1-15.41c25.48,0,39.35,15.41,39.35,47.17V822.51z M502.62,776.13l-8.53,1.97
			c-16.52,3.66-41.3,6.45-41.3,32.06c0,17.69,9,26.45,23.77,26.45c6.58,0,14.82-5.38,19.42-10.7c1.76-2.03,6.64-6.8,6.64-8.77
			V776.13z"/>
		<path d="M565.32,818.79c5.77,11.05,16.49,20.89,27.9,20.89c11.91,0,23.82-10.74,23.82-25.62c0-37.93-57.37-13.17-57.37-62.41
			c0-26.96,17.77-41.52,39.59-41.52c12.64,0,23.13,4.12,27.48,7.27c-2.37,6.43-4.35,13.15-5.77,19.93h-2.23
			c-3.2-9.25-11.64-18.58-20.65-18.58c-12.17,0-22.14,8.22-22.14,23.41c0,35.93,57.38,16.8,57.38,61.79
			c0,30.08-23.33,44.46-44.77,44.46c-9.93,0-21.83-3.15-30.31-9.01c1.93-6.74,4.1-13.5,5.1-20.61H565.32z"/>
		<path d="M666.05,635.02c3.25,0.28,6.37,0.86,9.74,0.86c3.2,0,6.11-0.58,9.73-0.86v102.32c8.51-17.18,21.88-27.2,39.13-27.2
			c28.19,0,39.13,19.32,39.13,54.75v81.23c-3.69-0.28-6.54-0.86-9.72-0.86c-3.41,0-6.58,0.58-9.77,0.86v-74.78
			c0-31.21-6.25-46.65-26.93-46.65c-21.86,0-31.84,15.77-31.84,44.98v76.45c-3.62-0.28-6.53-0.86-9.73-0.86
			c-3.36,0-6.48,0.58-9.74,0.86V635.02z"/>
	</g>
</g>
</svg>
