<svg width="136" height="61" xmlns="http://www.w3.org/2000/svg" xmlns:xlink="http://www.w3.org/1999/xlink" xmlns:svgjs="http://svgjs.com/svgjs" viewBox="1072 55 136 61"><svg width="75" height="26" xmlns="http://www.w3.org/2000/svg" xmlns:xlink="http://www.w3.org/1999/xlink" xmlns:svgjs="http://svgjs.com/svgjs" viewBox="1072 77 75 26" x="1072" y="77"><svg width="15" height="26" xmlns="http://www.w3.org/2000/svg" xmlns:xlink="http://www.w3.org/1999/xlink" xmlns:svgjs="http://svgjs.com/svgjs" viewBox="0.061 0 14.879 26" fill="#dd1954" x="1072" y="77"><svg xmlns="http://www.w3.org/2000/svg" xmlns:xlink="http://www.w3.org/1999/xlink" width="15" height="26" viewBox="0.825 0.392 14.151 24.728"><path paint-order="stroke fill markers" fill-rule="evenodd" d="M1.953 4.398c0-.713-.074-1.381-.223-2.003-.148-.621-.45-1.105-.905-1.45L4.477.391v10.775c0 .115.057.173.172.173.068 0 .23-.144.48-.434.251-.287.578-.6.977-.936.4-.336.88-.65 1.442-.939.562-.29 1.196-.434 1.904-.434 1.03 0 1.899.248 2.607.743a5.512 5.512 0 0 1 1.7 1.9c.423.774.731 1.627.925 2.56.195.932.292 1.85.292 2.746a12.34 12.34 0 0 1-.427 3.285c-.285 1.036-.719 1.947-1.301 2.732a6.242 6.242 0 0 1-2.241 1.865c-.913.462-1.996.692-3.25.692-.548 0-1.05-.029-1.505-.086a50.604 50.604 0 0 1-1.352-.19c-.445-.07-.913-.133-1.402-.19a14.44 14.44 0 0 0-1.66-.087 316.063 316.063 0 0 0 .115-8.668V4.4zM12 14.92a8.217 8.217 0 0 0-.685-2.092 4.254 4.254 0 0 0-1.235-1.52c-.515-.391-1.124-.589-1.833-.589-1.211 0-2.142.479-2.793 1.435-.651.957-.977 2.266-.977 3.924v2.663c0 .692.034 1.348.102 1.972.068.62.222 1.162.463 1.624.24.46.588.828 1.045 1.105.457.278 1.087.415 1.886.415.868 0 1.581-.211 2.14-.638a4.32 4.32 0 0 0 1.304-1.626 7.68 7.68 0 0 0 .635-2.16c.113-.784.17-1.533.17-2.249 0-.736-.073-1.491-.222-2.264z"/></svg></svg><svg width="17" height="23" xmlns="http://www.w3.org/2000/svg" xmlns:xlink="http://www.w3.org/1999/xlink" xmlns:svgjs="http://svgjs.com/svgjs" viewBox="0 0.158 17 22.684" x="1090" y="79"><svg xmlns="http://www.w3.org/2000/svg" xmlns:xlink="http://www.w3.org/1999/xlink" width="17" height="23" viewBox="0.429 0.572 16.468 21.974"><path paint-order="stroke fill markers" fill-rule="evenodd" d="M1.18 5.084c0-.78-.028-1.577-.086-2.393C1.037 1.876.817 1.169.43.572h4.602c-.387.596-.609 1.301-.667 2.115-.057.814-.085 1.61-.085 2.39v5.363c.41-.068.837-.263 1.281-.584.445-.321.9-.71 1.368-1.17.468-.458.93-.956 1.386-1.495.456-.538.9-1.06 1.334-1.565A75.522 75.522 0 0 0 11.87 2.91c.546-.71.82-1.272.82-1.684V.848a.943.943 0 0 0-.033-.276h4.24c-.798.711-1.546 1.365-2.241 1.96a24.828 24.828 0 0 0-2.17 2.132L7.186 10.44l5.676 8.174c.456.667.957 1.34 1.504 2.017.547.68 1.083 1.318 1.609 1.915h-3.592c-.319 0-.57-.086-.75-.258a3.752 3.752 0 0 1-.548-.674L4.93 12.237a3.274 3.274 0 0 0-.258-.362c-.102-.126-.186-.19-.254-.19-.07 0-.11.036-.12.104a1.137 1.137 0 0 0-.018.206v6.033c0 .782.028 1.581.085 2.399.058.814.28 1.522.667 2.12H.43c.388-.598.608-1.302.665-2.12a34.07 34.07 0 0 0 .087-2.392V5.085z"/></svg></svg><svg width="13" height="18" xmlns="http://www.w3.org/2000/svg" xmlns:xlink="http://www.w3.org/1999/xlink" xmlns:svgjs="http://svgjs.com/svgjs" viewBox="0 0.115 13 17.771" x="1107" y="85"><svg xmlns="http://www.w3.org/2000/svg" xmlns:xlink="http://www.w3.org/1999/xlink" width="13" height="18" viewBox="0.327 0.597 12.087 16.523"><path paint-order="stroke fill markers" fill-rule="evenodd" d="M9.36 16.776c-.158-.644-.255-1.162-.289-1.553-.034-.391-.118-.585-.253-.585-.07 0-.114.011-.138.034-.023.024-.047.046-.068.069-.23.322-.453.627-.67.914-.22.289-.477.54-.775.758-.297.22-.652.391-1.065.517-.412.125-.918.19-1.513.19-1.192 0-2.2-.323-3.025-.966C.74 15.51.327 14.556.327 13.29c0-.76.21-1.41.633-1.95a6.548 6.548 0 0 1 1.578-1.433c.629-.414 1.303-.776 2.023-1.087.72-.31 1.366-.604 1.938-.88.48-.231.88-.426 1.199-.588a2.47 2.47 0 0 0 .755-.556c.182-.208.308-.473.376-.798.068-.324.104-.762.104-1.317 0-.855-.194-1.578-.58-2.166-.388-.592-1.084-.886-2.088-.886-.821 0-1.39.173-1.708.517a3.78 3.78 0 0 0-.735 1.138c-.172.414-.36.794-.565 1.138-.206.345-.581.517-1.128.517-.389 0-.697-.097-.925-.294-.228-.194-.34-.498-.34-.913 0-.575.193-1.063.58-1.465.387-.402.877-.73 1.47-.982A7.913 7.913 0 0 1 4.882.75 14.565 14.565 0 0 1 6.95.597c.615 0 1.196.04 1.743.12.547.081 1.024.226 1.434.433.409.207.733.495.972.863.238.37.358.83.358 1.384v7.602c0 1.036.028 2.044.085 3.023.057.978.348 1.827.873 2.54l-3.055.214zm-5.426-2.21c.492.402 1.128.603 1.906.603.504 0 .95-.107 1.34-.326.389-.217.715-.504.979-.859.263-.355.459-.762.584-1.22.125-.46.19-.93.19-1.41V7.883l-1.855.929c-.642.319-1.204.613-1.684.874a7.22 7.22 0 0 0-1.22.825c-.33.287-.578.61-.738.965-.161.355-.24.773-.24 1.253 0 .825.246 1.438.738 1.838z"/></svg></svg><svg width="11" height="18" xmlns="http://www.w3.org/2000/svg" xmlns:xlink="http://www.w3.org/1999/xlink" xmlns:svgjs="http://svgjs.com/svgjs" viewBox="0 0.303 11 17.394" x="1121" y="85"><svg xmlns="http://www.w3.org/2000/svg" xmlns:xlink="http://www.w3.org/1999/xlink" width="11" height="18" viewBox="0.138 0.597 10.449 16.523"><path paint-order="stroke fill markers" fill-rule="evenodd" d="M4.004 5.468c.353.46.792.87 1.316 1.228.525.357 1.095.692 1.71 1.002.615.31 1.185.669 1.71 1.07.524.406.963.872 1.316 1.402.353.531.531 1.198.531 2.005 0 .83-.178 1.55-.53 2.162a4.904 4.904 0 0 1-1.406 1.539 6.376 6.376 0 0 1-1.953.932 7.797 7.797 0 0 1-2.175.312 9.51 9.51 0 0 1-1.936-.19 11.53 11.53 0 0 1-1.868-.57 1.323 1.323 0 0 1-.427-.242c-.102-.092-.154-.266-.154-.519 0-.416.023-.83.068-1.244.045-.416.08-.842.104-1.28.272.436.534.825.787 1.169.251.344.536.635.857.875.321.24.681.423 1.081.549.4.127.886.19 1.458.19 1.029 0 1.825-.24 2.384-.725.562-.484.841-1.22.841-2.21 0-.69-.165-1.272-.494-1.743a5.17 5.17 0 0 0-1.248-1.243 13.962 13.962 0 0 0-1.642-1.002 9.923 9.923 0 0 1-1.641-1.07 5.204 5.204 0 0 1-1.248-1.45C1.113 5.85.948 5.143.948 4.29c0-1.31.46-2.256 1.384-2.83C3.256.883 4.527.596 6.144.596c.524 0 1.044.04 1.556.12.513.081 1.032.18 1.555.295.045.023.13.052.256.085.126.035.188.11.188.226a47.915 47.915 0 0 1-.068 2.35 15.468 15.468 0 0 0-.907-1.022 3.54 3.54 0 0 0-.803-.624 2.962 2.962 0 0 0-.855-.311 5.48 5.48 0 0 0-1.028-.087c-.661 0-1.255.168-1.778.502-.526.333-.787.871-.787 1.607 0 .691.177 1.269.53 1.73z"/></svg></svg><svg width="13" height="25" xmlns="http://www.w3.org/2000/svg" xmlns:xlink="http://www.w3.org/1999/xlink" xmlns:svgjs="http://svgjs.com/svgjs" viewBox="0 0.23 13 24.539" x="1134" y="77"><svg xmlns="http://www.w3.org/2000/svg" xmlns:xlink="http://www.w3.org/1999/xlink" width="13" height="25" viewBox="0.199 0.392 12.796 24.154"><path paint-order="stroke fill markers" fill-rule="evenodd" d="M12.448 20.817c0 .645.024 1.307.069 1.986.046.678.206 1.26.478 1.743H9.924V15.07c0-.554-.029-1.108-.086-1.66a4.284 4.284 0 0 0-.414-1.489 2.8 2.8 0 0 0-.931-1.072c-.403-.276-.948-.416-1.638-.416s-1.241.14-1.655.416a2.935 2.935 0 0 0-.983 1.107c-.242.46-.403.98-.484 1.558a12.37 12.37 0 0 0-.12 1.728v5.569c0 .645.023 1.308.07 1.99.046.68.235 1.262.563 1.746H.473c.32-.482.5-1.063.547-1.743.045-.677.069-1.339.069-1.983V4.395c0-.713-.035-1.38-.103-2C.918 1.772.654 1.288.2.944L3.613.391v9.757c0 .136.005.264.014.378.01.115.043.172.1.172.069 0 .201-.109.397-.328.195-.218.477-.459.844-.723a6.515 6.515 0 0 1 1.363-.725c.54-.217 1.178-.326 1.913-.326 1.309 0 2.338.346 3.084 1.036.747.69 1.12 1.84 1.12 3.45v7.734z"/></svg></svg></svg><svg width="66" height="61" xmlns="http://www.w3.org/2000/svg" xmlns:xlink="http://www.w3.org/1999/xlink" xmlns:svgjs="http://svgjs.com/svgjs" viewBox="1142 55 66 61" x="1142" y="55"><svg width="30" height="29" xmlns="http://www.w3.org/2000/svg" xmlns:xlink="http://www.w3.org/1999/xlink" xmlns:svgjs="http://svgjs.com/svgjs" viewBox="0 0.093 30 28.815" fill="#dd1954" x="1143" y="55"><svg xmlns="http://www.w3.org/2000/svg" xmlns:xlink="http://www.w3.org/1999/xlink" width="30" height="29" viewBox="0.169 0.822 29.03 27.883"><path paint-order="stroke fill markers" fill-rule="evenodd" d="M.17.822L29.2 4.609l-6.885 24.096L.17.822z"/></svg></svg><svg width="29" height="42" xmlns="http://www.w3.org/2000/svg" xmlns:xlink="http://www.w3.org/1999/xlink" xmlns:svgjs="http://svgjs.com/svgjs" viewBox="0 0.151 29 41.699" fill="#dd1954" x="1166" y="59"><svg xmlns="http://www.w3.org/2000/svg" xmlns:xlink="http://www.w3.org/1999/xlink" width="29" height="42" viewBox="0.555 0.723 28.25 40.62"><path paint-order="stroke fill markers" fill-rule="evenodd" d="M7.233.723L28.805 29.41l-24.9 11.933L.807 28.721s-.803-4.59.459-8.147L7.233.724z"/></svg></svg><svg width="15" height="15" xmlns="http://www.w3.org/2000/svg" xmlns:xlink="http://www.w3.org/1999/xlink" xmlns:svgjs="http://svgjs.com/svgjs" fill="#b30001" x="1187" y="74"><svg xmlns="http://www.w3.org/2000/svg" xmlns:xlink="http://www.w3.org/1999/xlink" width="15" height="15" viewBox="0.576 0.64 13.54 13.54"><path paint-order="stroke fill markers" fill-rule="evenodd" d="M8.608 14.18L.576 2.935 14.116.64 8.608 14.18z"/></svg></svg><svg width="9" height="7" xmlns="http://www.w3.org/2000/svg" xmlns:xlink="http://www.w3.org/1999/xlink" xmlns:svgjs="http://svgjs.com/svgjs" viewBox="0 0.195 9 6.609" fill="#b30001" x="1199" y="74"><svg xmlns="http://www.w3.org/2000/svg" xmlns:xlink="http://www.w3.org/1999/xlink" width="9" height="7" viewBox="0.853 0.64 7.344 5.393"><path paint-order="stroke fill markers" fill-rule="evenodd" d="M3.148.64l5.049 5.393H.853L3.148.64z"/></svg></svg><svg width="21" height="11" xmlns="http://www.w3.org/2000/svg" xmlns:xlink="http://www.w3.org/1999/xlink" xmlns:svgjs="http://svgjs.com/svgjs" viewBox="0 0.279 21 10.441" fill="#e4170d" x="1174" y="89"><svg xmlns="http://www.w3.org/2000/svg" xmlns:xlink="http://www.w3.org/1999/xlink" width="21" height="11" viewBox="0.265 0.328 20.54 10.212"><path paint-order="stroke fill markers" fill-rule="evenodd" d="M.265 10.54L20.805.328l-.689 2.409L.265 10.54z"/></svg></svg><svg width="14" height="30" xmlns="http://www.w3.org/2000/svg" xmlns:xlink="http://www.w3.org/1999/xlink" xmlns:svgjs="http://svgjs.com/svgjs" viewBox="0.214 0 13.571 30" fill="#900" x="1156" y="86"><svg xmlns="http://www.w3.org/2000/svg" xmlns:xlink="http://www.w3.org/1999/xlink" width="14" height="30" viewBox="0.709 0.229 13.081 28.916"><path paint-order="stroke fill markers" fill-rule="evenodd" d="M9.315.23L.71 29.144 13.79 18.818 9.315.23z"/></svg></svg><svg width="13" height="12" xmlns="http://www.w3.org/2000/svg" xmlns:xlink="http://www.w3.org/1999/xlink" xmlns:svgjs="http://svgjs.com/svgjs" viewBox="0 0.015 13 11.97" fill="#b30001" x="1142" y="60"><svg xmlns="http://www.w3.org/2000/svg" xmlns:xlink="http://www.w3.org/1999/xlink" width="13" height="12" viewBox="0.825 0.641 11.589 10.671"><path paint-order="stroke fill markers" fill-rule="evenodd" d="M12.414 11.312L4.038.642.825.755l11.59 10.556z"/></svg></svg><svg width="29" height="15" xmlns="http://www.w3.org/2000/svg" xmlns:xlink="http://www.w3.org/1999/xlink" xmlns:svgjs="http://svgjs.com/svgjs" viewBox="0 0.185 29 14.63" fill="#cc0001" x="1166" y="86"><svg xmlns="http://www.w3.org/2000/svg" width="29" height="15" viewBox="0.624 0.126 28.181 14.217"><path paint-order="stroke fill markers" fill-rule="evenodd" d="M.624.126c.073.967.183 1.595.183 1.595l3.098 12.622 24.9-11.933-.228-.304L.624.126z"/></svg></svg></svg></svg>