<svg version="1.1" viewBox="0.0 0.0 960.0 540.0" fill="none" stroke="none" stroke-linecap="square" stroke-miterlimit="10" xmlns:xlink="http://www.w3.org/1999/xlink" xmlns="http://www.w3.org/2000/svg"><clipPath id="g2c918f43dee_0_29.0"><path d="m0 0l960.0 0l0 540.0l-960.0 0l0 -540.0z" clip-rule="nonzero"/></clipPath><g clip-path="url(#g2c918f43dee_0_29.0)"><path fill="#ffffff" d="m0 0l960.0 0l0 540.0l-960.0 0z" fill-rule="evenodd"/><path fill="#990000" d="m295.637 344.4607l-40.125977 -112.25195l87.811035 14.236221z" fill-rule="evenodd"/><path stroke="#ffffff" stroke-width="1.0" stroke-linejoin="round" stroke-linecap="butt" d="m295.637 344.4607l-40.125977 -112.25195l87.811035 14.236221z" fill-rule="evenodd"/><path fill="#990000" d="m431.4597 307.4875l-24.75589 -186.77167l-112.44095 223.81104z" fill-rule="evenodd"/><path stroke="#ffffff" stroke-width="1.0" stroke-linejoin="round" stroke-linecap="butt" d="m431.4597 307.4875l-24.75589 -186.77167l-112.44095 223.81104z" fill-rule="evenodd"/><path fill="#990000" d="m252.72952 222.07742l20.881897 62.362213l-72.409454 -27.181122z" fill-rule="evenodd"/><path stroke="#ffffff" stroke-width="1.0" stroke-linejoin="round" stroke-linecap="butt" d="m252.72952 222.07742l20.881897 62.362213l-72.409454 -27.181122z" fill-rule="evenodd"/><path fill="#990000" d="m408.157 118.9895l233.01193 31.636917l-208.06705 155.44969z" fill-rule="evenodd"/><path stroke="#ffffff" stroke-width="1.0" stroke-linejoin="round" stroke-linecap="butt" d="m408.157 118.9895l233.01193 31.636917l-208.06705 155.44969z" fill-rule="evenodd"/><path fill="#990000" d="m421.41397 429.1266l-129.22836 -83.63779l139.24411 -39.102356z" fill-rule="evenodd"/><path stroke="#ffffff" stroke-width="1.0" stroke-linejoin="round" stroke-linecap="butt" d="m421.41397 429.1266l-129.22836 -83.63779l139.24411 -39.102356z" fill-rule="evenodd"/><path fill="#990000" d="m429.81793 306.11536l-1.5747986 119.212616l82.14172 21.385803z" fill-rule="evenodd"/><path stroke="#ffffff" stroke-width="1.0" stroke-linejoin="round" stroke-linecap="butt" d="m429.81793 306.11536l-1.5747986 119.212616l82.14172 21.385803z" fill-rule="evenodd"/><path fill="#990000" d="m515.8857 444.7728l-0.5512085 -119.19684l-82.566925 -18.409454z" fill-rule="evenodd"/><path stroke="#ffffff" stroke-width="1.0" stroke-linejoin="round" stroke-linecap="butt" d="m515.8857 444.7728l-0.5512085 -119.19684l-82.566925 -18.409454z" fill-rule="evenodd"/></g></svg>