<svg version="1.1" viewBox="0.0 0.0 960.0 540.0" fill="none" stroke="none" stroke-linecap="square" stroke-miterlimit="10" xmlns:xlink="http://www.w3.org/1999/xlink" xmlns="http://www.w3.org/2000/svg"><clipPath id="g26d42c8df2b_0_11.0"><path d="m0 0l960.0 0l0 540.0l-960.0 0l0 -540.0z" clip-rule="nonzero"/></clipPath><g clip-path="url(#g26d42c8df2b_0_11.0)"><path fill="#efefef" d="m0 0l960.0 0l0 540.0l-960.0 0z" fill-rule="evenodd"/><path fill="#990000" d="m539.06116 339.59192l-35.149597 -90.897644l76.91339 11.527557z" fill-rule="evenodd"/><path stroke="#ffffff" stroke-width="1.0" stroke-linejoin="round" stroke-linecap="butt" d="m539.06116 339.59192l-35.149597 -90.897644l76.91339 11.527557z" fill-rule="evenodd"/><path fill="#990000" d="m658.02374 309.6418l-21.669312 -151.2441l-98.519714 181.22835z" fill-rule="evenodd"/><path stroke="#ffffff" stroke-width="1.0" stroke-linejoin="round" stroke-linecap="butt" d="m658.02374 309.6418l-21.669312 -151.2441l-98.519714 181.22835z" fill-rule="evenodd"/><path fill="#990000" d="m501.47098 240.46979l18.299225 50.519684l-63.433075 -22.015747z" fill-rule="evenodd"/><path stroke="#ffffff" stroke-width="1.0" stroke-linejoin="round" stroke-linecap="butt" d="m501.47098 240.46979l18.299225 50.519684l-63.433075 -22.015747z" fill-rule="evenodd"/><path fill="#990000" d="m637.63965 157.00262l204.10162 25.625732l-182.24335 125.901825z" fill-rule="evenodd"/><path stroke="#ffffff" stroke-width="1.0" stroke-linejoin="round" stroke-linecap="butt" d="m637.63965 157.00262l204.10162 25.625732l-182.24335 125.901825z" fill-rule="evenodd"/><path fill="#990000" d="m649.22864 408.17798l-113.18109 -67.74805l121.968506 -31.653534z" fill-rule="evenodd"/><path stroke="#ffffff" stroke-width="1.0" stroke-linejoin="round" stroke-linecap="butt" d="m649.22864 408.17798l-113.18109 -67.74805l121.968506 -31.653534z" fill-rule="evenodd"/><path fill="#990000" d="m656.5967 308.56555l-1.3701172 96.519684l71.95276 17.338562z" fill-rule="evenodd"/><path stroke="#ffffff" stroke-width="1.0" stroke-linejoin="round" stroke-linecap="butt" d="m656.5967 308.56555l-1.3701172 96.519684l71.95276 17.338562z" fill-rule="evenodd"/><path fill="#990000" d="m731.97833 420.8429l-0.45666504 -96.55121l-72.33069 -14.913361z" fill-rule="evenodd"/><path stroke="#ffffff" stroke-width="1.0" stroke-linejoin="round" stroke-linecap="butt" d="m731.97833 420.8429l-0.45666504 -96.55121l-72.33069 -14.913361z" fill-rule="evenodd"/><path fill="#000000" fill-opacity="0.0" d="m157.18636 140.40158l299.1496 0l0 296.78738l-299.1496 0z" fill-rule="evenodd"/><path fill="#990000" d="m214.73323 235.16158l-12.25 0l0 -23.640625q0 -7.5 -0.796875 -9.703125q-0.78125 -2.203125 -2.546875 -3.421875q-1.765625 -1.21875 -4.25 -1.21875q-3.1875 0 -5.71875 1.75q-2.53125 1.734375 -3.46875 4.609375q-0.9375 2.875 -0.9375 10.640625l0 20.984375l-12.25 0l0 -46.328125l11.375 0l0 6.8125q6.0625 -7.859375 15.265625 -7.859375q4.0625 0 7.421875 1.46875q3.359375 1.453125 5.078125 3.734375q1.71875 2.265625 2.390625 5.140625q0.6875 2.875 0.6875 8.25l0 28.78125zm9.596436 -23.8125q0 -6.109375 3.0 -11.8125q3.015625 -5.71875 8.53125 -8.734375q5.515625 -3.015625 12.328125 -3.015625q10.51561 0 17.218735 6.828125q6.71875 6.828125 6.71875 17.25q0 10.515625 -6.78125 17.4375q-6.78125 6.90625 -17.07811 6.90625q-6.359375 0 -12.140625 -2.875q-5.78125 -2.875 -8.796875 -8.4375q-3.0 -5.5625 -3.0 -13.546875zm12.5625 0.65625q0 6.890625 3.265625 10.5625q3.28125 3.65625 8.078125 3.65625q4.796875 0 8.04686 -3.65625q3.25 -3.671875 3.25 -10.65625q0 -6.796875 -3.25 -10.453125q-3.2499847 -3.671875 -8.04686 -3.671875q-4.796875 0 -8.078125 3.671875q-3.265625 3.65625 -3.265625 10.546875zm39.03392 -23.171875l13.046875 0l11.078125 32.890625l10.8125 -32.890625l12.6875 0l-16.34375 44.578125l-2.921875 8.078125q-1.625 4.046875 -3.09375 6.1875q-1.453125 2.140625 -3.359375 3.46875q-1.890625 1.328125 -4.65625 2.0625q-2.765625 0.75 -6.25 0.75q-3.546875 0 -6.9375 -0.734375l-1.09375 -9.59375q2.875 0.5625 5.1875 0.5625q4.28125 0 6.328125 -2.515625q2.046875 -2.5 3.140625 -6.390625l-17.625 -46.453125z" fill-rule="nonzero"/><path fill="#000000" d="m220.85823 342.36157l0 -63.9375l12.90625 0l0 28.390625l26.093735 -28.390625l17.359375 0l-24.07811 24.90625l25.374985 39.03125l-16.703125 0l-17.57811 -30.015625l-10.46875 10.6875l0 19.328125l-12.90625 0zm73.41615 -32.1875l-11.125 -2.015625q1.875 -6.703125 6.453125 -9.9375q4.578125 -3.234375 13.609375 -3.234375q8.203125 0 12.203125 1.953125q4.015625 1.9375 5.65625 4.921875q1.640625 2.984375 1.640625 10.96875l-0.140625 14.3125q0 6.109375 0.59375 9.015625q0.59375 2.890625 2.203125 6.203125l-12.125 0q-0.484375 -1.21875 -1.171875 -3.625q-0.3125 -1.078125 -0.4375 -1.4375q-3.140625 3.0625 -6.71875 4.59375q-3.578125 1.515625 -7.640625 1.515625q-7.15625 0 -11.28125 -3.875q-4.109375 -3.890625 -4.109375 -9.828125q0 -3.921875 1.875 -6.984375q1.875 -3.078125 5.25 -4.71875q3.390625 -1.640625 9.75 -2.859375q8.59375 -1.609375 11.90625 -3.015625l0 -1.21875q0 -3.53125 -1.75 -5.03125q-1.734375 -1.5 -6.578125 -1.5q-3.265625 0 -5.109375 1.28125q-1.828125 1.28125 -2.953125 4.515625zm16.390625 9.9375q-2.359375 0.796875 -7.46875 1.890625q-5.09375 1.078125 -6.65625 2.125q-2.40625 1.703125 -2.40625 4.328125q0 2.5625 1.921875 4.4375q1.921875 1.875 4.890625 1.875q3.3125 0 6.3125 -2.171875q2.234375 -1.65625 2.921875 -4.0625q0.484375 -1.5625 0.484375 -5.96875l0 -2.453125zm19.805054 9.03125l12.296875 -1.875q0.78125 3.578125 3.1875 5.4375q2.40625 1.84375 6.71875 1.84375q4.75 0 7.15625 -1.734375q1.609375 -1.234375 1.609375 -3.28125q0 -1.390625 -0.875 -2.3125q-0.90625 -0.859375 -4.09375 -1.609375q-14.828125 -3.265625 -18.796875 -5.96875q-5.5 -3.75 -5.5 -10.4375q0 -6.015625 4.75 -10.109375q4.75 -4.109375 14.75 -4.109375q9.5 0 14.125 3.109375q4.625 3.09375 6.375 9.15625l-11.5625 2.140625q-0.75 -2.703125 -2.828125 -4.140625q-2.0625 -1.453125 -5.890625 -1.453125q-4.84375 0 -6.9375 1.359375q-1.40625 0.953125 -1.40625 2.484375q0 1.3125 1.234375 2.21875q1.65625 1.21875 11.4375 3.453125q9.796875 2.21875 13.6875 5.453125q3.828125 3.265625 3.828125 9.109375q0 6.375 -5.328125 10.953125q-5.3125 4.578125 -15.734375 4.578125q-9.46875 0 -14.984375 -3.828125q-5.515625 -3.84375 -7.21875 -10.4375zm66.2113 -50.71875l0 23.5q5.9375 -6.9375 14.171875 -6.9375q4.234375 0 7.625 1.578125q3.40625 1.5625 5.125 4.015625q1.734375 2.4375 2.359375 5.40625q0.640625 2.96875 0.640625 9.203125l0 27.171875l-12.25 0l0 -24.46875q0 -7.28125 -0.703125 -9.234375q-0.703125 -1.96875 -2.46875 -3.125q-1.765625 -1.15625 -4.421875 -1.15625q-3.0625 0 -5.46875 1.484375q-2.390625 1.46875 -3.5 4.46875q-1.109375 2.984375 -1.109375 8.828125l0 23.203125l-12.25 0l0 -63.9375l12.25 0z" fill-rule="nonzero"/></g></svg>